<?xml version="1.0" standalone="no"?>
<!DOCTYPE svg PUBLIC "-//W3C//DTD SVG 20010904//EN"
 "http://www.w3.org/TR/2001/REC-SVG-20010904/DTD/svg10.dtd">
<svg version="1.0" xmlns="http://www.w3.org/2000/svg"
 width="1089.000000pt" height="1280.000000pt" viewBox="0 0 1089.000000 1280.000000"
 preserveAspectRatio="xMidYMid meet">
<g transform="translate(0.000000,1280.000000) scale(0.100000,-0.100000)"
fill="#000000" stroke="none">
<path d="M10422 12774 c-33 -26 -33 -27 -13 -41 18 -12 21 -25 21 -101 0 -84
10 -141 30 -172 8 -12 16 -8 50 25 22 22 40 49 40 61 0 12 -16 48 -35 80 -41
67 -43 107 -8 112 17 3 26 -5 38 -30 27 -58 63 -105 104 -137 30 -23 23 -56
-12 -49 -20 4 -22 0 -24 -46 -2 -66 -45 -212 -88 -301 -19 -38 -37 -83 -41
-98 -6 -26 -10 -28 -35 -23 -24 5 -29 2 -29 -14 0 -23 -13 -79 -46 -203 -25
-91 -116 -297 -132 -297 -18 0 -20 13 -7 57 13 44 13 44 -5 28 -11 -10 -26
-15 -36 -11 -13 5 -16 16 -11 54 2 26 8 56 12 67 6 19 6 19 -8 3 -22 -28 -40
-23 -33 10 11 44 80 157 96 157 8 0 14 -7 13 -15 -2 -11 5 -16 24 -15 20 0 28
-6 34 -25 l6 -25 11 25 c5 14 19 46 31 73 16 38 18 47 6 47 -20 0 -34 31 -28
63 4 20 1 27 -11 27 -9 0 -16 4 -16 8 0 13 53 83 85 112 38 36 49 58 35 75
-18 22 -23 140 -6 154 11 9 8 17 -19 44 -57 57 -66 125 -31 209 6 13 2 16 -26
15 -27 -2 -32 1 -30 16 3 16 -1 18 -30 12 -54 -12 -71 -33 -64 -81 6 -44 1
-68 -33 -151 -24 -62 -22 -67 8 -17 18 30 24 34 36 24 13 -11 15 -4 15 46 0
65 10 90 33 81 9 -3 16 -28 21 -74 4 -42 16 -86 32 -116 13 -26 22 -52 19 -57
-10 -16 -37 -11 -60 10 l-22 20 4 -27 c5 -31 -28 -68 -101 -117 -74 -49 -94
-29 -56 58 10 25 18 46 16 46 -2 0 -20 -27 -40 -59 -20 -33 -50 -72 -66 -87
-28 -27 -28 -28 -9 -42 23 -16 24 -35 3 -53 -14 -11 -18 -10 -30 6 -8 11 -12
25 -10 32 10 25 -2 12 -51 -54 -28 -38 -111 -133 -185 -213 -254 -273 -1795
-1825 -2324 -2340 -291 -283 -666 -650 -834 -815 -779 -767 -809 -795 -861
-795 -23 0 -31 -6 -43 -34 -19 -47 -86 -118 -147 -157 -27 -17 -48 -33 -47
-35 2 -2 37 7 78 20 56 17 76 28 79 42 2 10 11 30 21 44 9 14 20 37 24 52 6
28 31 58 47 58 16 0 22 -30 11 -53 -6 -12 -18 -39 -27 -61 -15 -38 -15 -38 8
-32 12 3 25 6 29 6 4 0 5 12 2 28 -5 23 5 39 59 102 87 103 4019 4033 4083
4081 69 53 114 50 114 -9 l0 -23 26 20 c15 12 32 21 39 21 7 0 18 14 25 31 21
50 107 98 125 69 9 -14 -5 -35 -77 -122 -55 -66 -95 -129 -222 -345 -25 -42
-130 -122 -143 -109 -4 3 3 19 15 34 41 52 179 257 197 292 15 32 12 30 -30
-18 -26 -28 -51 -49 -56 -46 -9 5 -1 24 46 100 10 16 -22 -14 -71 -66 -813
-868 -3549 -3603 -3931 -3931 -34 -29 -60 -55 -58 -57 2 -2 39 8 83 22 71 24
79 29 75 49 -7 37 95 142 904 938 417 410 1075 1060 1463 1444 752 744 915
900 930 890 6 -4 7 -13 2 -20 -21 -39 -225 -269 -363 -410 -87 -88 -195 -203
-240 -255 -46 -52 -181 -196 -299 -320 -118 -124 -323 -341 -456 -481 -308
-325 -1339 -1374 -1434 -1458 -67 -60 -71 -66 -54 -78 26 -19 7 -47 -34 -51
-25 -3 -31 1 -34 20 -4 22 -5 22 -13 4 -6 -13 -5 -21 3 -24 7 -2 19 -10 26
-18 8 -8 18 -14 23 -14 11 0 91 93 130 150 17 25 188 207 379 405 192 198 498
516 680 705 518 539 558 580 572 580 20 0 -12 -40 -185 -231 -87 -96 -327
-365 -533 -599 -482 -548 -832 -940 -859 -964 -12 -11 -21 -31 -21 -48 0 -28
0 -28 32 -15 24 10 34 22 39 45 8 37 29 67 164 227 184 217 953 1084 1448
1631 50 55 56 67 32 58 -21 -8 -19 9 6 40 24 30 55 36 45 9 -3 -10 49 40 116
110 116 121 138 139 138 118 0 -23 -598 -804 -1230 -1606 -427 -541 -680 -865
-1010 -1295 -167 -217 -473 -611 -680 -875 -395 -505 -767 -983 -1164 -1500
-267 -347 -300 -385 -333 -385 -30 0 -45 26 -81 140 -54 171 -57 196 -57 477
l0 262 -22 -28 c-39 -50 -180 -69 -171 -23 2 9 13 18 26 20 26 4 28 14 7 32
-25 21 -19 59 11 66 l27 7 -27 14 c-47 24 -28 53 34 53 38 0 96 -51 106 -93 7
-27 9 -20 16 47 7 73 10 83 45 120 21 22 26 31 12 18 -28 -24 -49 -29 -49 -10
0 31 1651 1645 1828 1787 35 28 60 51 57 51 -4 0 -58 -16 -120 -36 -95 -29
-114 -39 -119 -58 -3 -13 -77 -88 -163 -168 -87 -80 -167 -156 -178 -169 -11
-13 30 22 90 77 61 55 163 146 229 202 105 91 136 109 136 83 0 -4 -89 -88
-197 -187 -216 -196 -392 -360 -788 -734 -283 -267 -519 -486 -605 -564 -30
-27 -114 -107 -187 -178 -124 -121 -134 -128 -172 -128 -55 0 -90 -17 -84 -41
7 -25 2 -24 -87 8 -112 39 -115 45 -54 101 28 26 303 276 610 557 611 557
1047 959 1109 1024 37 39 38 41 15 39 -38 -4 -31 24 10 45 24 12 34 23 32 36
-2 12 6 22 25 29 59 23 71 23 81 5 10 -17 11 -17 29 0 11 9 25 17 31 17 6 0
27 11 47 24 40 27 175 62 202 52 10 -4 27 3 45 21 23 22 32 25 47 16 14 -9 40
-5 121 18 108 30 155 36 165 19 8 -12 -34 -32 -123 -59 -54 -16 -72 -26 -68
-36 3 -9 -79 -96 -231 -242 -400 -385 -409 -395 -80 -92 340 314 412 371 494
395 48 14 51 17 41 34 -10 15 -9 29 5 67 9 26 17 54 17 61 0 20 -40 14 -156
-22 -60 -19 -203 -62 -319 -95 -115 -34 -274 -83 -353 -111 -152 -53 -202 -61
-202 -34 0 29 -29 -4 -40 -47 -8 -30 -39 -65 -157 -176 -289 -272 -292 -277
-33 -52 240 207 280 235 280 190 0 -10 -55 -71 -128 -142 -199 -194 -529 -494
-1177 -1074 -98 -88 -245 -225 -325 -304 l-145 -143 169 153 c205 187 229 208
239 209 24 1 -16 -45 -215 -247 -198 -200 -221 -226 -205 -237 20 -15 12 -26
-19 -26 -36 0 -54 11 -54 33 0 24 -15 13 -34 -25 -9 -19 -22 -24 -66 -28 -63
-6 -109 -31 -188 -102 -29 -27 -60 -48 -71 -48 -20 0 -51 30 -51 49 0 27 126
141 748 673 358 308 652 562 652 564 0 6 -97 -75 -460 -386 -151 -130 -377
-322 -502 -428 -125 -105 -282 -239 -350 -297 -76 -66 -139 -111 -167 -122
-26 -9 -54 -23 -63 -31 -16 -14 -15 -16 22 -34 44 -22 53 -51 21 -68 -36 -19
-69 -12 -85 18 l-14 27 -20 -46 c-53 -122 -96 -283 -212 -784 -40 -170 -81
-337 -91 -372 l-20 -63 -153 7 c-148 6 -154 5 -174 -15 -15 -15 -35 -22 -65
-23 -80 -1 -21 -8 318 -39 187 -16 411 -37 497 -46 87 -9 164 -13 170 -11 7 3
4 6 -8 6 -57 2 -104 37 -75 55 5 4 73 14 152 23 l142 17 19 -23 c10 -13 21
-41 24 -62 7 -39 7 -39 52 -39 l45 0 -22 24 c-26 27 -39 90 -21 101 23 14 54
-31 56 -82 l2 -48 233 -16 c327 -23 360 -27 366 -49 3 -13 18 -21 46 -25 108
-17 195 -53 181 -76 -3 -5 -31 -9 -62 -10 -51 -1 -46 -3 57 -20 118 -20 144
-30 134 -55 -4 -11 8 -14 63 -13 38 1 58 4 44 6 -78 13 -105 34 -80 59 7 7 -9
16 -50 27 -45 13 -63 23 -71 41 -8 17 -22 26 -50 30 -46 7 -53 32 -13 42 15 4
78 4 141 0 90 -5 114 -3 111 6 -3 7 -27 15 -54 18 -96 11 -96 10 -196 349 -50
169 -59 207 -49 223 22 36 333 441 551 718 119 151 312 401 430 555 346 454
598 779 870 1125 141 179 341 435 445 570 350 454 498 643 950 1215 520 657
676 857 840 1080 247 335 509 665 828 1048 177 212 240 275 220 220 -10 -28
-103 -167 -200 -298 -85 -116 -417 -618 -429 -650 -5 -11 -2 -14 10 -9 23 9
20 -6 -14 -59 -30 -48 -50 -60 -50 -31 0 23 -11 7 -169 -236 -148 -226 -173
-258 -236 -290 -38 -19 -43 -27 -48 -63 -3 -25 -44 -119 -102 -232 -104 -206
-109 -222 -22 -74 59 101 87 135 87 105 0 -26 -460 -868 -532 -974 -22 -32
-33 -40 -42 -33 -9 8 -31 -24 -86 -127 -40 -75 -99 -180 -131 -233 -31 -52
-62 -114 -68 -137 -7 -23 -16 -44 -21 -47 -6 -3 -15 -16 -20 -28 -10 -22 -10
-22 6 1 22 29 48 30 38 0 -14 -47 -308 -563 -342 -600 -22 -25 -35 -22 -30 7
9 44 -68 -53 -98 -125 -15 -36 -43 -96 -61 -133 -19 -38 -39 -80 -44 -94 -8
-23 -8 -24 6 -13 8 7 18 10 22 7 10 -10 -32 -99 -148 -314 -155 -288 -162
-298 -188 -298 -18 0 -32 -19 -74 -98 -43 -80 -49 -99 -38 -106 13 -8 12 -16
-4 -52 -24 -53 -54 -91 -66 -83 -5 3 -7 10 -4 15 4 5 4 9 1 9 -6 0 -36 -55
-36 -64 0 -3 7 -3 15 0 28 11 16 -29 -40 -131 -30 -55 -131 -251 -224 -435
-93 -184 -186 -361 -205 -394 -20 -32 -36 -64 -36 -70 0 -22 -68 -151 -129
-245 -34 -52 -61 -100 -61 -106 0 -6 -23 -50 -51 -96 -29 -46 -89 -157 -136
-246 -84 -162 -105 -193 -118 -174 -6 11 53 158 112 274 19 38 31 67 26 64 -4
-3 -44 -78 -88 -166 -90 -182 -83 -177 -183 -136 -34 14 -67 25 -74 24 -16 0
8 -12 85 -40 33 -12 57 -26 57 -35 0 -8 -6 -15 -12 -15 -7 -1 10 -5 39 -9 53
-8 123 -51 123 -75 0 -8 24 -21 53 -29 55 -16 94 -47 82 -65 -9 -15 -122 -14
-343 4 -103 8 -335 24 -517 35 -1259 78 -1983 126 -2460 160 -300 22 -441 25
-450 10 -12 -19 -45 -10 -54 13 -5 13 -21 31 -36 41 -21 14 -24 20 -14 32 6 8
19 14 28 15 9 1 -9 7 -40 13 -84 19 -149 73 -106 89 6 2 -10 8 -38 12 -27 4
-61 14 -74 23 l-25 15 23 18 22 18 -33 5 c-222 34 -277 51 -251 76 9 10 60 9
225 -4 117 -9 229 -16 248 -15 l35 1 -35 12 c-23 8 -45 28 -66 59 -55 84 -56
84 -157 92 -51 4 -190 17 -310 31 -259 29 -258 29 -251 9 5 -12 -2 -15 -30
-15 -43 0 -48 16 -8 27 25 7 23 8 -18 13 -25 3 -48 3 -51 0 -4 -3 -3 -36 1
-75 10 -87 2 -105 -48 -105 -51 0 -164 -25 -201 -44 -83 -44 -160 -144 -206
-271 -15 -42 -26 -78 -23 -80 2 -3 27 6 54 19 27 13 77 34 112 46 87 32 72 36
-18 5 -84 -29 -100 -30 -100 -12 0 21 113 71 259 116 73 23 140 41 149 42 9 0
12 3 6 5 -18 7 -183 -34 -272 -68 -45 -17 -85 -28 -88 -25 -11 10 6 27 54 53
26 14 39 23 29 20 -57 -18 -67 -18 -67 -2 0 8 10 22 23 30 54 36 344 115 420
116 53 0 22 -25 -54 -43 -105 -26 -272 -77 -267 -83 3 -2 23 2 46 10 71 25
267 66 317 66 57 0 57 -19 -1 -37 -53 -16 -36 -15 76 2 121 19 223 20 218 3
-3 -7 -29 -18 -59 -25 -50 -11 -46 -11 54 -6 72 4 107 2 107 -5 0 -10 -17 -15
-170 -47 -88 -18 -64 -18 90 1 70 8 143 14 162 12 40 -4 45 -29 8 -39 -24 -7
-24 -7 5 -8 17 -1 37 -6 45 -11 12 -7 10 -11 -10 -19 -23 -9 -21 -10 18 -10
35 -1 42 -4 43 -21 1 -11 2 -26 3 -32 1 -8 -39 -23 -104 -40 -58 -15 -90 -26
-71 -23 90 13 231 17 231 7 0 -11 -16 -15 -125 -32 -264 -42 -1056 -202 -1107
-224 -29 -13 -45 0 -52 39 -4 20 -9 35 -12 33 -13 -14 -58 -376 -78 -648 -52
-666 -79 -1427 -53 -1467 4 -7 15 -9 24 -6 14 6 14 8 -2 19 -25 19 -12 40 32
52 38 10 38 10 7 11 -36 1 -57 21 -48 44 7 19 47 36 110 46 27 5 43 9 36 10
-25 2 -53 89 -59 179 -6 102 8 175 35 170 9 -1 23 1 30 6 20 12 30 -2 40 -59
l10 -50 1 45 c1 25 5 50 9 56 4 6 31 13 61 16 30 3 57 11 62 19 13 21 1 21
-112 3 -176 -27 -199 -29 -199 -11 0 8 7 20 15 27 11 9 12 16 4 26 -16 20 -3
32 49 48 l47 15 -47 0 c-60 1 -66 26 -10 40 176 45 395 65 1122 102 236 12
753 9 766 -3 17 -17 -15 -23 -149 -28 l-142 -5 197 -7 c108 -3 202 -10 209
-14 23 -14 -18 -23 -140 -30 -67 -4 -119 -9 -117 -11 3 -3 38 -8 78 -11 55 -5
73 -11 73 -22 0 -21 -41 -27 -185 -29 -150 -2 -170 -6 -170 -36 0 -35 29 -85
50 -85 25 0 34 -16 13 -24 -12 -5 -14 -9 -5 -18 20 -20 14 -35 -18 -47 -27 -9
-30 -14 -30 -54 0 -60 20 -78 62 -54 36 21 58 22 58 3 0 -17 -56 -66 -75 -66
-8 0 -19 -9 -25 -20 -6 -11 -17 -20 -25 -20 -27 0 -15 -28 14 -35 20 -4 41 0
63 12 29 16 59 18 248 18 222 0 294 -7 287 -28 -2 -9 -66 -14 -218 -19 -427
-13 -490 -31 -144 -41 202 -5 266 -14 215 -28 -14 -4 -103 -7 -197 -8 -108 -1
-173 -5 -173 -11 0 -6 44 -10 113 -10 114 0 157 -10 127 -30 -8 -5 -58 -10
-110 -11 -137 -1 -158 -15 -32 -21 94 -5 136 -17 119 -34 -4 -4 -74 -13 -157
-20 -83 -7 -161 -16 -172 -20 -21 -6 -21 -7 -3 -20 10 -8 16 -17 12 -20 -10
-11 -179 -16 -227 -7 -29 6 -45 14 -45 23 0 10 15 17 45 21 l45 5 -39 8 c-42
9 -721 -1 -866 -13 l-85 -7 78 -8 c76 -8 99 -21 55 -30 -48 -10 -197 -17 -222
-10 -37 9 -27 28 20 36 60 10 -111 -2 -195 -13 -41 -6 -84 -15 -95 -19 -19 -7
-17 -10 17 -24 21 -9 61 -21 89 -26 77 -15 393 -12 778 6 291 14 355 15 415 4
38 -8 106 -13 150 -12 44 0 161 2 260 3 156 2 192 0 272 -19 111 -26 197 -28
242 -6 45 22 175 15 221 -12 39 -22 98 -120 83 -135 -7 -7 -41 -7 -103 0 -50
6 -234 16 -409 22 -468 18 -470 17 -482 -184 -4 -67 -14 -173 -23 -236 -15
-118 -12 -147 25 -224 11 -24 11 -36 -1 -75 -7 -26 -16 -96 -19 -157 l-6 -110
-40 1 c-22 1 -130 6 -240 13 -342 21 -1054 -7 -1272 -50 -35 -7 -56 -17 -66
-33 -14 -21 -13 -25 7 -51 22 -27 24 -28 98 -22 85 6 118 -4 75 -24 -45 -20
-20 -29 84 -29 55 0 109 -5 120 -11 28 -15 196 -33 309 -33 98 -1 611 37 760
55 47 6 117 14 155 19 39 5 279 13 535 20 609 14 675 18 1215 78 168 18 436
19 550 1 88 -13 530 -27 1098 -35 l498 -7 34 33 c38 37 43 50 20 50 -9 0 -15
9 -15 24 0 13 7 29 15 36 17 14 20 40 4 40 -6 0 -8 11 -5 27 5 23 2 30 -19 39
-19 9 -27 9 -36 -3 -17 -20 -53 -12 -57 13 -2 11 6 31 17 45 18 23 20 23 38 7
18 -17 20 -17 36 0 14 13 21 14 36 5 22 -14 31 -8 31 19 0 14 -5 17 -24 12
-13 -3 -27 -1 -31 5 -3 6 -17 8 -31 5 -13 -3 -30 -1 -37 4 -8 7 -18 7 -27 2
-18 -12 -147 -12 -175 -1 -33 13 -62 -13 -57 -50 l4 -30 24 22 c22 21 25 21
42 6 13 -12 21 -14 29 -6 17 17 44 3 36 -18 -11 -33 -35 -53 -57 -48 -26 6
-38 -2 -53 -37 -10 -23 -10 -28 1 -28 7 0 19 7 26 15 18 22 40 18 40 -7 l0
-21 23 21 c27 25 57 29 57 7 0 -14 3 -14 25 1 29 19 48 10 39 -19 -6 -21 -6
-21 13 -5 24 22 43 23 43 4 0 -12 -23 -63 -38 -86 -8 -11 -30 33 -25 48 3 10
-11 -2 -31 -26 -39 -43 -63 -53 -72 -27 -5 12 -9 12 -29 -1 -27 -18 -40 -5
-29 28 6 21 5 20 -25 -5 -26 -21 -43 -27 -81 -27 -27 0 -52 5 -55 10 -4 7 -12
7 -25 0 -30 -16 -42 -12 -35 11 7 20 6 20 -19 4 -27 -18 -46 -13 -46 11 0 10
-5 9 -20 -6 -21 -21 -40 -26 -40 -10 0 6 -10 5 -26 -2 -21 -10 -27 -9 -35 3
-5 8 -6 20 -4 28 5 11 3 12 -10 1 -11 -9 -18 -10 -29 -1 -11 9 -17 6 -30 -14
-19 -28 -56 -34 -56 -8 0 9 12 45 26 80 14 36 34 103 44 149 24 114 35 124
122 124 43 0 80 -6 99 -16 32 -16 103 -12 115 7 3 5 14 13 24 19 15 8 24 5 45
-14 23 -21 30 -23 51 -14 18 8 31 8 49 0 17 -8 33 -8 51 -2 14 6 49 10 79 10
59 0 71 8 52 34 -11 15 -15 15 -32 2 -17 -13 -23 -12 -48 2 -27 16 -29 16 -47
-8 -16 -21 -21 -23 -42 -13 -36 18 -126 23 -198 12 -36 -5 -74 -10 -85 -10
-49 0 -168 21 -181 32 -11 9 -14 53 -14 224 0 185 2 214 16 219 9 3 54 6 102
6 109 0 100 19 -14 29 -75 6 -79 7 -101 40 -27 41 -30 78 -5 85 9 3 189 6 399
8 371 3 381 4 365 22 -15 15 -26 17 -82 12 -36 -4 -209 -11 -385 -16 -176 -5
-335 -14 -354 -20 -40 -11 -65 2 -56 31 8 23 -9 24 -49 4 -44 -23 -51 -1 -19
55 110 188 143 210 215 143 34 -32 86 -33 128 -3 17 12 55 52 84 89 49 61 60
69 127 93 41 14 92 33 114 42 28 11 78 15 172 16 124 0 132 1 138 21 9 27 1
33 -23 20 -39 -21 -544 -14 -1992 29 -190 5 -531 15 -759 20 -445 11 -487 17
-434 61 11 10 61 15 172 19 l156 5 -110 8 c-139 10 -225 29 -246 55 -9 12 -19
49 -22 86 -16 174 -173 319 -371 344 -48 6 -63 12 -79 34 -19 26 -20 33 -8
185 6 87 10 230 10 318 l-2 160 -8 -180 c-12 -264 -27 -457 -38 -486 l-9 -26
-344 -6 c-452 -8 -997 -40 -1248 -74 -211 -27 -222 -28 -237 -7 -8 11 -13 45
-13 87 0 117 40 621 50 631 7 7 10 -4 11 -29 1 -22 5 -51 9 -65 6 -18 8 -7 9
41 1 36 4 107 7 157 6 81 5 92 -10 92 -13 0 -16 10 -16 50 0 28 5 50 10 50 6
0 10 -4 10 -10 0 -5 4 -10 8 -10 4 0 13 40 19 90 13 104 30 145 58 145 17 0
20 -8 23 -60 l3 -60 24 59 c25 62 72 118 118 143 25 13 31 13 53 -2 13 -8 24
-21 24 -27 0 -6 10 -2 23 10 51 48 142 66 196 37 28 -14 29 -13 35 10 5 19 13
25 36 27 17 0 35 1 42 2 7 1 18 -17 24 -39 l12 -40 1 33 c2 63 79 103 173 90
20 -3 42 1 57 11 18 11 51 16 118 17 57 0 98 5 105 12 17 17 58 15 64 -3 5
-13 10 -12 31 5 19 15 30 17 44 9 10 -5 19 -16 19 -24 0 -8 5 -15 10 -15 6 0
10 6 10 13 0 23 34 49 47 36 8 -8 20 -8 39 -2 31 10 121 -2 142 -19 6 -6 12
-20 13 -32 0 -20 1 -20 10 3 9 24 11 24 107 18 54 -3 105 -9 114 -12 20 -8 27
-34 29 -100 1 -44 2 -46 9 -20 4 17 8 55 9 85 0 31 6 61 12 67 8 8 62 10 168
8 149 -4 151 -3 49 5 -112 9 -133 14 -122 32 7 11 208 4 282 -9 41 -7 42 -23
1 -23 -17 0 -28 -4 -24 -10 10 -15 186 -13 183 3 -2 7 9 13 26 15 25 3 28 1
23 -17 -4 -16 1 -21 27 -27 40 -8 76 -41 76 -69 0 -34 11 -37 32 -9 38 48 73
58 218 62 74 2 139 8 145 13 16 15 65 11 65 -6 0 -8 3 -15 8 -15 58 -1 348
-44 354 -53 4 -7 8 -50 9 -97 l1 -85 14 64 c7 36 18 69 22 73 10 10 142 0 162
-12 10 -6 12 -65 11 -246 -1 -132 1 -333 5 -449 l7 -210 67 0 c91 0 100 -9
100 -100 0 -89 -5 -105 -35 -105 -12 0 -39 -13 -60 -30 -21 -16 -43 -30 -50
-30 -21 0 -23 -19 -30 -232 -6 -206 -1 -248 27 -220 22 22 31 13 25 -25 -4
-21 -3 -44 2 -51 4 -8 12 60 17 157 5 93 13 173 17 178 18 17 27 -29 27 -145
0 -80 4 -121 10 -117 6 4 10 84 10 208 0 210 9 277 37 277 14 0 15 -11 10 -82
-10 -155 17 -299 68 -360 27 -32 33 -58 13 -58 -7 0 -30 19 -51 43 l-38 42 6
-75 c3 -41 7 -87 8 -101 l2 -27 250 -6 c582 -16 835 -30 886 -51 25 -10 28 22
35 436 7 372 4 411 -25 376 -14 -18 -31 -313 -31 -549 0 -102 -3 -193 -6 -202
-5 -14 -30 -16 -168 -16 -155 0 -415 14 -465 26 l-24 5 7 327 c12 632 15 1097
7 1059 -10 -45 -18 -54 -33 -39 -13 13 -16 331 -4 370 11 35 30 21 37 -26 8
-61 19 -63 19 -3 0 35 4 53 14 57 17 6 255 -12 280 -22 14 -5 16 -15 10 -49
l-6 -44 43 22 c35 17 62 21 149 22 111 0 147 -11 135 -43 -3 -8 1 -20 10 -26
13 -10 13 -19 2 -73 -7 -34 -16 -65 -20 -69 -4 -4 -7 -20 -7 -35 0 -15 -4 -31
-10 -34 -5 -3 -10 -22 -10 -40 0 -24 -9 -45 -31 -70 -53 -59 -17 -56 62 6 64
50 79 38 98 -80 6 -35 8 -68 5 -72 -3 -5 4 -21 15 -35 l21 -27 0 73 c0 64 3
76 28 105 15 17 35 47 45 64 9 18 22 31 28 29 6 -2 39 -57 72 -122 69 -135 68
-140 -10 -171 -27 -11 -61 -28 -74 -38 l-24 -18 30 8 c17 4 50 8 74 8 43 1 44
2 71 55 15 30 31 70 35 88 4 18 12 31 18 29 19 -6 20 -66 3 -92 -21 -32 -20
-38 3 -24 10 7 26 9 35 6 20 -8 15 -36 -24 -123 -35 -78 -70 -95 -70 -35 l-1
26 -17 -27 c-29 -48 -59 -32 -41 21 17 48 1 51 -17 4 -20 -50 -29 -53 -156
-53 -138 0 -144 26 -18 76 38 15 67 31 64 35 -3 5 -15 4 -27 -3 -12 -7 -26
-11 -30 -10 -5 1 -29 -5 -55 -13 -28 -10 -60 -14 -79 -10 -28 5 -33 3 -33 -13
0 -23 -19 -42 -42 -42 -13 0 -18 8 -18 26 0 20 4 24 19 19 11 -3 22 -2 25 3 3
5 -19 14 -49 21 -42 9 -59 20 -79 46 -14 18 -26 46 -26 62 0 16 -9 45 -20 65
-11 21 -23 56 -26 79 -4 23 -16 51 -26 61 -16 16 -18 31 -16 101 3 76 5 82 25
85 20 3 23 -1 23 -30 0 -19 4 -38 9 -44 5 -5 11 -20 14 -34 2 -14 5 5 6 42 1
44 6 72 16 81 11 12 12 17 2 25 -20 17 -120 62 -125 57 -7 -7 17 -292 34 -415
28 -189 30 -196 79 -225 66 -38 144 -53 319 -59 88 -4 162 -9 165 -11 10 -10
-11 -18 -61 -23 -29 -2 -59 -9 -65 -14 -16 -13 -18 -442 -3 -482 13 -34 53
-43 235 -51 180 -8 185 -6 196 81 11 91 10 317 -2 374 -12 57 -22 65 -99 75
-72 10 -106 23 -93 36 9 9 226 -4 261 -16 9 -3 12 -38 12 -126 l0 -122 113
171 c61 93 178 268 259 389 80 120 152 232 159 248 7 17 115 201 239 410 333
559 369 620 393 672 12 27 31 62 43 78 33 47 38 63 10 30 -14 -16 -81 -122
-147 -235 -67 -113 -194 -326 -282 -475 -216 -363 -332 -549 -505 -805 -172
-255 -230 -332 -245 -327 -7 2 -13 31 -15 71 -3 61 0 72 31 124 19 31 56 98
83 147 26 50 94 170 151 268 57 98 149 261 204 363 55 102 115 209 133 237 18
29 127 232 241 452 251 483 332 628 389 695 30 35 45 63 49 91 8 61 46 134
412 794 367 662 376 677 443 747 37 39 49 60 63 117 23 91 67 190 143 325 212
377 204 137 -12 -374 -139 -327 -341 -740 -528 -1078 -42 -75 -155 -288 -252
-472 -96 -184 -203 -385 -239 -447 -61 -107 -98 -183 -89 -183 8 0 184 317
328 590 80 151 199 374 264 495 135 252 393 774 484 980 85 192 154 365 207
520 24 72 58 161 74 198 32 72 30 89 -12 102 -35 11 -24 54 26 99 32 30 49 56
62 96 24 76 276 579 488 975 97 182 199 375 227 430 62 124 91 163 135 181 38
16 53 46 53 104 0 109 279 752 745 1720 145 301 185 395 185 435 0 64 140 433
251 663 54 111 73 143 87 140 15 -3 18 -23 24 -163 7 -189 22 -710 43 -1505 8
-316 19 -741 25 -945 5 -203 14 -554 20 -780 6 -225 15 -563 21 -750 5 -187
12 -624 16 -971 5 -551 4 -637 -9 -670 -10 -26 -14 -59 -10 -100 3 -50 1 -64
-13 -75 -68 -55 -75 -66 -75 -119 0 -50 3 -55 50 -101 42 -40 50 -54 50 -84 0
-44 18 -80 59 -119 39 -37 42 -81 7 -97 -30 -14 -63 2 -76 37 -12 30 -30 23
-30 -10 0 -32 35 -73 68 -81 88 -19 148 97 78 152 -37 30 -56 66 -56 106 0 44
16 78 70 150 22 29 40 58 40 66 0 7 -13 30 -29 50 -29 37 -45 78 -55 141 -11
67 -35 496 -40 730 -4 129 -11 386 -16 570 -6 184 -19 709 -30 1165 -11 457
-24 994 -30 1195 -5 201 -14 541 -20 755 -6 215 -17 637 -25 938 l-15 549 51
56 c28 32 59 74 70 94 30 58 22 59 -11 2 -16 -29 -45 -61 -63 -73 -74 -45 -76
-17 -6 70 84 105 89 125 64 247 -6 28 -5 32 14 32 26 0 26 4 1 45 -25 40 -33
44 -140 61 -124 19 -150 18 -188 -12z m-36 -496 c9 -16 13 -37 10 -45 -6 -13
-9 -13 -32 2 -37 24 -45 8 -10 -20 25 -20 28 -26 17 -39 -20 -24 -49 -19 -83
14 -31 32 -34 67 -5 62 11 -2 19 6 23 23 7 28 31 46 51 38 8 -3 21 -19 29 -35z
m-76 -171 c0 -19 -173 -363 -212 -421 -35 -53 -58 -69 -58 -41 0 27 242 475
257 475 7 0 13 -6 13 -13z m-250 -48 c0 -24 -4 -30 -17 -27 -11 2 -19 14 -21
31 -3 22 1 27 17 27 17 0 21 -6 21 -31z m254 -74 c19 -29 33 -90 20 -84 -26
12 -74 45 -74 51 0 16 20 58 29 58 5 0 16 -11 25 -25z m-481 -363 c-16 -20
-35 -38 -41 -40 -24 -8 -11 25 25 68 30 35 39 40 41 26 2 -10 -9 -34 -25 -54z
m153 -83 c4 -7 0 -16 -9 -20 -8 -5 -37 -53 -64 -106 -60 -119 -183 -324 -295
-493 -76 -114 -108 -150 -108 -120 0 6 60 111 134 233 73 122 163 276 199 342
90 166 120 200 143 164z m-296 -43 c0 -15 -77 -106 -91 -106 -17 0 -9 23 27
71 34 47 64 64 64 35z m170 -19 c0 -28 -27 -67 -46 -67 -33 0 -26 46 12 84 19
20 34 12 34 -17z m156 -24 c-8 -31 -111 -208 -127 -219 -6 -3 -13 -3 -17 1 -7
7 49 119 98 198 34 53 56 63 46 20z m108 -47 c-15 -31 -33 -61 -40 -67 -24
-19 -23 8 2 61 31 67 44 84 56 72 6 -6 -1 -31 -18 -66z m-340 8 c30 -29 14
-61 -24 -49 -20 6 -35 38 -25 55 9 15 31 12 49 -6z m-44 -70 c0 -8 -4 -24 -10
-34 -8 -14 -5 -19 11 -23 16 -4 19 -10 14 -29 -10 -30 -24 -48 -41 -48 -7 0
-35 -14 -63 -31 -62 -39 -90 -25 -62 29 5 9 15 32 21 49 24 63 130 135 130 87z
m240 -80 c0 -21 -125 -262 -155 -301 -48 -59 -37 -8 23 113 71 143 108 204
122 204 6 0 10 -7 10 -16z m-120 -89 c0 -17 -50 -118 -73 -150 -25 -32 -32 -9
-11 37 46 105 84 155 84 113z m-286 -58 c8 -22 7 -30 -4 -37 -28 -18 -69 22
-56 56 10 25 49 13 60 -19z m38 -70 c11 -18 -9 -44 -72 -95 -50 -39 -57 -49
-45 -58 32 -24 2 -84 -42 -84 -22 0 -25 3 -21 30 3 17 4 30 2 30 -1 0 -29 -13
-62 -30 -34 -16 -66 -30 -71 -30 -26 0 0 48 66 123 19 21 47 60 64 87 l31 50
71 -7 c40 -3 75 -11 79 -16z m352 -75 c6 -11 -33 -92 -44 -92 -19 0 -18 19 1
58 21 41 33 50 43 34z m-290 -121 c3 -5 -1 -22 -9 -37 -8 -16 -15 -37 -15 -47
0 -22 -18 -59 -34 -69 -19 -13 -54 -9 -60 8 -7 19 17 77 50 121 24 32 57 43
68 24z m156 -43 c19 -13 35 -28 37 -34 4 -13 -85 -54 -118 -54 -19 0 -21 4
-15 32 8 40 32 78 50 78 7 0 28 -10 46 -22z m-412 -20 c18 -18 15 -48 -5 -48
-20 0 -53 28 -53 47 0 16 42 17 58 1z m-90 -64 c12 -8 22 -26 22 -40 0 -19 -5
-24 -24 -24 -43 0 -70 42 -44 68 15 15 19 15 46 -4z m556 -23 c9 -14 -12 -61
-27 -61 -7 0 -23 -8 -36 -17 l-24 -16 21 -8 c27 -10 28 -34 2 -76 -29 -48 -80
-40 -80 12 0 12 5 26 12 33 9 9 7 12 -9 12 -29 0 -38 17 -21 37 18 22 128 93
144 93 7 0 15 -4 18 -9z m-591 -49 c39 -34 13 -69 -129 -178 -76 -58 -94 -65
-94 -35 0 24 75 126 123 168 20 18 37 36 37 41 0 14 23 31 34 25 6 -3 19 -13
29 -21z m265 6 c15 -15 16 -84 2 -93 -5 -3 -10 -20 -10 -36 0 -36 -34 -53 -86
-43 -26 5 -34 11 -34 28 0 36 83 156 108 156 4 0 13 -5 20 -12z m-108 -12 c0
-20 -39 -66 -56 -66 -19 0 -18 8 9 47 23 34 47 44 47 19z m236 -91 c-14 -21
-14 -23 4 -18 24 6 37 -21 21 -41 -10 -12 -8 -15 10 -18 12 -2 27 -11 33 -21
9 -16 4 -25 -32 -58 -68 -60 -205 -149 -229 -149 -30 0 -29 19 1 78 30 58 78
105 134 130 37 16 40 21 27 32 -12 10 -13 15 -3 28 11 13 10 14 -8 8 -13 -4
-26 -1 -32 7 -21 25 50 75 76 54 10 -8 10 -14 -2 -32z m-336 -60 c0 -22 -45
-109 -66 -126 -16 -13 -17 -11 -11 20 13 65 77 153 77 106z m-86 -56 c-8 -17
-29 -38 -46 -48 -32 -20 -115 -37 -126 -26 -9 9 51 60 113 95 36 21 53 26 62
19 10 -9 9 -17 -3 -40z m246 -2 c0 -54 -61 -79 -68 -29 -6 37 5 52 38 52 25 0
30 -4 30 -23z m-90 -16 c12 -24 13 -81 1 -81 -19 0 -56 81 -44 94 12 12 33 5
43 -13z m-160 -93 c0 -19 -38 -78 -50 -78 -18 0 -11 45 10 68 23 24 40 29 40
10z m450 -23 c0 -26 -78 -185 -107 -217 -58 -64 -148 -24 -121 54 13 36 72 96
144 146 69 48 84 51 84 17z m-314 -20 c9 -35 -17 -107 -87 -247 l-59 -118 -74
0 c-41 0 -78 4 -81 10 -8 12 13 51 97 185 99 156 133 195 168 195 23 0 31 -5
36 -25z m-268 -21 c4 -26 -57 -80 -100 -89 -39 -9 -58 9 -58 56 0 49 18 60 95
56 53 -2 60 -5 63 -23z m62 -55 c0 -11 -42 -91 -93 -177 -51 -86 -114 -195
-140 -242 -25 -47 -55 -94 -66 -104 -19 -17 -21 -17 -27 -2 -3 8 -1 30 5 48
16 45 123 235 199 353 89 138 122 172 122 124z m-229 -20 c26 -50 -28 -128
-154 -223 -44 -33 -67 -39 -67 -17 0 15 120 194 153 229 36 38 52 40 68 11z
m491 -139 c9 -19 20 -56 23 -82 l7 -48 -91 0 c-105 0 -108 4 -65 79 57 99 95
115 126 51z m114 -45 c8 -20 -15 -57 -33 -53 -23 4 -38 55 -23 73 14 16 47 4
56 -20z m-586 10 c0 -17 -96 -204 -136 -265 -29 -44 -48 -49 -95 -25 -66 34
-56 100 28 182 57 55 158 123 185 123 10 0 18 -7 18 -15z m220 -145 c12 -7 4
-29 -46 -127 -35 -69 -66 -118 -74 -118 -12 0 -16 21 -18 105 -1 58 2 111 6
118 5 7 28 16 53 21 60 12 62 12 79 1z m224 0 c15 -5 23 -15 20 -22 -5 -12
-215 -180 -261 -209 -12 -7 -25 -11 -28 -7 -7 7 103 230 119 240 16 11 120 10
150 -2z m46 -81 c0 -12 -18 -56 -41 -99 -41 -79 -147 -196 -232 -257 -40 -29
-53 -24 -73 23 -21 50 -6 73 100 158 53 42 126 103 162 136 36 33 70 60 75 60
5 0 9 -9 9 -21z m-427 -129 c10 -94 9 -102 -10 -128 -11 -15 -27 -28 -36 -30
-21 -4 -84 64 -92 99 -8 35 31 126 70 165 41 41 56 18 68 -106z m-328 42 c43
-23 50 -31 50 -57 0 -26 -5 -32 -40 -43 -35 -12 -42 -11 -67 8 -34 25 -36 25
-40 -2 -3 -25 -50 -53 -106 -64 -45 -9 -42 14 9 93 44 67 68 87 92 77 8 -3 18
-1 22 5 10 16 25 13 80 -17z m218 -207 c31 -25 57 -51 57 -58 0 -6 -29 -66
-65 -131 -100 -184 -110 -181 -102 34 5 153 14 200 40 200 7 0 38 -20 70 -45z
m-173 19 c0 -8 -19 -48 -43 -87 -24 -40 -76 -132 -117 -204 -40 -73 -83 -143
-94 -155 l-21 -23 -3 22 c-4 26 63 161 133 268 28 44 58 91 65 105 19 38 60
90 71 90 5 0 9 -7 9 -16z m-160 -9 c26 -31 -68 -120 -120 -113 -27 4 -28 2
-23 -23 4 -21 0 -30 -16 -39 -27 -14 -38 -7 -46 31 -7 31 9 64 27 53 5 -3 6 5
3 18 -8 31 8 45 82 68 72 23 78 24 93 5z m714 -68 c-15 -48 -56 -126 -70 -131
-34 -13 -62 23 -49 64 8 25 103 102 116 94 6 -3 7 -15 3 -27z m-527 -109 c-8
-150 -16 -198 -33 -198 -18 0 -46 92 -46 150 1 34 10 67 32 109 46 92 54 81
47 -61z m275 55 c31 -28 22 -59 -28 -98 -46 -34 -74 -44 -74 -26 0 17 41 106
57 124 20 21 22 21 45 0z m-485 -10 c7 -18 -88 -213 -114 -234 -18 -16 -24 -8
-30 38 -6 45 26 119 78 178 34 38 56 44 66 18z m-209 -66 c5 -23 -24 -67 -43
-67 -19 0 -27 32 -15 64 7 20 16 27 32 24 13 -2 24 -11 26 -21z m794 -24 c32
-29 22 -51 -39 -83 -99 -51 -132 -89 -43 -49 83 37 91 3 28 -122 -51 -102 -76
-129 -120 -129 -36 0 -163 68 -163 88 0 6 32 31 70 55 66 40 70 45 70 79 0 41
13 59 98 129 64 54 72 57 99 32z m-467 -89 c29 -70 15 -109 -30 -80 -28 18
-41 67 -25 95 16 31 38 25 55 -15z m-297 -22 c5 -64 -17 -92 -71 -92 -54 0
-71 11 -64 41 7 28 95 100 117 96 10 -1 16 -16 18 -45z m265 -70 c44 -46 33
-66 -22 -38 -35 18 -55 42 -46 56 11 18 41 11 68 -18z m-265 -56 c37 -37 -36
-112 -135 -138 -38 -11 -41 -14 -36 -38 8 -43 -59 -78 -87 -45 -10 12 -9 20 4
40 16 25 16 27 -5 44 -22 18 -23 19 -6 63 21 54 52 85 92 91 52 9 158 -2 173
-17z m86 -21 c5 -14 -167 -368 -198 -409 -20 -26 -50 -14 -41 16 13 48 104
226 147 288 24 36 48 78 52 93 7 29 30 36 40 12z m216 -20 c40 -21 40 -60 -2
-136 -40 -73 -55 -79 -89 -38 -21 26 -27 29 -32 15 -8 -21 -46 -20 -76 3 -27
21 -25 52 8 92 17 21 22 22 40 12 29 -18 31 -17 31 15 0 15 5 33 12 40 17 17
73 15 108 -3z m196 -101 c35 -25 64 -52 64 -59 0 -16 -56 -65 -75 -65 -19 0
-33 21 -55 85 -35 102 -28 106 66 39z m-95 -56 c7 -17 13 -49 13 -71 1 -36 -3
-44 -42 -74 -51 -39 -91 -52 -102 -33 -9 15 -8 17 28 112 40 108 76 131 103
66z m-491 -14 c0 -21 -59 -140 -76 -155 -31 -26 -63 22 -50 76 6 25 89 95 112
95 8 0 14 -7 14 -16z m-212 -45 c3 -31 -3 -41 -47 -82 -75 -70 -103 -60 -61
22 28 56 70 102 89 99 10 -2 17 -15 19 -39z m495 -10 c25 -31 18 -72 -25 -157
-36 -69 -64 -105 -77 -97 -5 2 -12 28 -15 57 -4 29 -16 73 -27 98 -43 96 -22
135 70 127 42 -3 59 -9 74 -28z m357 -33 c0 -31 -33 -72 -49 -62 -14 9 -7 52
11 73 17 21 38 15 38 -11z m-785 -87 c25 -56 24 -75 -6 -84 -10 -4 -19 -15
-19 -25 0 -23 -138 -143 -202 -176 -27 -13 -48 -30 -48 -38 0 -7 -9 -21 -20
-31 -53 -48 -61 65 -11 159 41 77 73 106 116 106 30 0 36 3 31 16 -8 20 89
124 116 124 13 0 26 -16 43 -51z m270 -21 c36 -127 38 -177 6 -237 -14 -25
-47 -27 -73 -5 -17 16 -18 15 -15 -22 2 -33 -1 -39 -24 -47 -18 -7 -34 -6 -55
4 -35 17 -43 62 -22 124 11 34 18 40 41 40 25 -1 27 2 27 42 0 67 45 153 80
153 15 0 23 -13 35 -52z m435 31 c17 -30 4 -86 -38 -170 -42 -84 -72 -102 -90
-52 -7 21 -8 8 -5 -52 l6 -81 -34 -25 c-19 -14 -55 -38 -81 -53 l-47 -27 -16
24 c-9 14 -21 52 -27 85 -19 104 28 243 87 258 36 9 61 -3 80 -39 l16 -32 -4
35 c-6 47 13 91 54 123 41 33 84 35 99 6z m-620 -132 c0 -7 -33 -80 -73 -162
-119 -242 -232 -435 -254 -435 -16 0 -16 3 2 47 19 45 19 46 -5 31 -14 -9 -22
-10 -31 -1 -26 26 -38 167 -18 220 27 72 105 111 155 78 20 -13 25 -23 22 -46
-3 -16 -4 -29 -3 -29 1 0 37 64 80 143 42 78 84 150 92 159 16 18 33 15 33 -5z
m-156 -164 c-22 -30 -60 -41 -77 -24 -7 7 2 22 27 47 34 34 38 36 54 21 15
-16 15 -19 -4 -44z m430 -70 c17 -50 20 -91 8 -110 -10 -16 -173 -113 -189
-113 -7 0 -13 5 -13 11 0 12 76 156 117 222 33 52 57 49 77 -10z m-206 -4 c41
-14 44 -28 18 -85 -26 -56 -49 -79 -71 -70 -19 7 -22 135 -3 154 15 15 17 15
56 1z m-538 -39 c0 -24 -55 -88 -66 -77 -12 11 33 97 51 97 8 0 15 -9 15 -20z
m435 -63 c21 -69 19 -153 -4 -204 -11 -23 -42 -75 -70 -117 -41 -60 -57 -76
-76 -76 -27 0 -95 54 -95 76 0 21 159 335 182 361 28 30 45 19 63 -40z m452 3
c5 -25 -35 -80 -57 -80 -27 0 -27 39 1 74 22 28 52 31 56 6z m-862 -30 c7 -11
55 -179 55 -192 0 -13 -31 -9 -95 11 -89 28 -115 42 -115 62 0 10 30 42 68 73
71 59 77 62 87 46z m777 -65 c16 -36 -1 -87 -36 -104 -35 -16 -129 -7 -147 15
-18 22 -2 43 62 81 66 40 105 43 121 8z m-1008 -73 c8 -13 -32 -72 -49 -72
-21 0 -19 23 6 54 21 27 34 32 43 18z m142 -53 c88 -27 124 -46 124 -65 0 -21
-35 -31 -170 -51 -147 -21 -155 -17 -114 57 24 44 61 78 85 80 4 0 38 -9 75
-21z m764 -14 c42 -22 38 -58 -11 -97 -47 -38 -85 -41 -110 -8 -26 34 -36 95
-18 116 16 20 91 14 139 -11z m-168 -70 c25 -100 23 -112 -21 -156 -44 -45
-75 -49 -116 -18 -21 18 -26 28 -21 50 8 43 109 200 125 197 9 -2 22 -31 33
-73z m-556 -87 c4 -6 -6 -23 -25 -40 -28 -25 -39 -28 -97 -28 -36 0 -74 5 -85
10 -21 12 -25 35 -7 46 37 23 201 33 214 12z m684 -27 c0 -10 -7 -24 -15 -31
-21 -17 -39 1 -30 29 8 27 45 28 45 2z m-445 -24 c36 -20 40 -27 40 -61 0 -54
-25 -69 -61 -36 -25 23 -26 23 -15 3 6 -12 8 -28 6 -36 -3 -7 1 -20 10 -27 21
-17 19 -48 -8 -95 -28 -49 -52 -56 -65 -18 l-9 28 -10 -35 c-7 -26 -15 -36
-33 -38 -22 -4 -59 -37 -60 -55 0 -4 11 -17 25 -29 14 -12 25 -32 25 -46 0
-30 -50 -103 -69 -99 -22 3 -44 94 -39 161 4 46 9 63 28 78 14 11 23 31 25 51
2 34 37 111 56 123 7 4 20 -2 30 -14 15 -20 18 -20 30 -5 8 9 14 32 14 52 0
29 3 35 18 33 17 -3 17 -1 3 27 -33 64 -11 78 59 38z m-165 -26 c0 -30 -80
-181 -96 -181 -18 0 -18 -1 7 62 41 105 89 169 89 119z m-216 -27 c20 -19 12
-34 -18 -34 -25 0 -46 17 -46 37 0 18 45 16 64 -3z m734 -6 c16 -16 15 -50 -2
-73 -12 -17 -18 -18 -40 -7 -33 15 -35 55 -4 76 27 19 31 19 46 4z m-792 -54
c8 -33 -9 -52 -31 -34 -22 19 -47 69 -40 80 10 17 64 -18 71 -46z m164 3 c0
-22 -31 -57 -51 -57 -24 0 -24 11 2 44 22 27 49 35 49 13z m440 -15 c0 -29
-102 -114 -114 -94 -3 5 11 32 30 60 26 39 41 52 59 52 17 0 25 -6 25 -18z
m-709 -26 c17 -37 -13 -89 -83 -141 -62 -46 -73 -51 -82 -36 -6 9 54 113 97
166 33 41 53 44 68 11z m799 -35 c8 -16 5 -23 -16 -40 -24 -19 -123 -61 -144
-61 -23 0 -20 24 6 52 62 66 133 88 154 49z m-605 -4 c23 -18 14 -76 -16 -103
-21 -18 -21 -18 -40 5 -26 32 -25 76 3 95 27 19 29 19 53 3z m-27 -277 c-60
-120 -99 -186 -110 -188 -13 -2 -18 3 -18 17 0 26 141 305 183 363 30 41 32
42 35 18 3 -16 -28 -87 -90 -210z m618 175 c7 -17 -101 -226 -138 -266 -14
-16 -33 -29 -41 -29 -23 0 -141 94 -145 114 -5 23 29 58 101 108 112 76 210
108 223 73z m-749 -96 c29 -112 28 -135 -8 -207 -47 -95 -78 -86 -170 51 -38
59 -47 89 -30 115 13 21 165 132 176 129 6 -2 20 -41 32 -88z m-2077 60 c0
-26 -68 -104 -182 -210 -68 -63 -256 -238 -418 -390 -334 -313 -358 -334 -368
-324 -13 13 932 935 959 935 5 0 9 -5 9 -11z m2146 -34 c18 -45 18 -64 -2 -72
-22 -8 -34 14 -34 65 0 51 16 54 36 7z m154 -131 c25 -64 -3 -211 -54 -289
-20 -31 -51 -32 -67 -4 -31 60 47 319 96 319 9 0 20 -12 25 -26z m-392 -118
c56 -69 102 -129 102 -135 0 -6 -9 -15 -19 -21 -17 -8 -22 -6 -33 17 -16 32
-22 33 -130 9 -101 -21 -178 -22 -178 -1 0 29 124 255 140 255 8 0 61 -56 118
-124z m651 33 c33 -22 61 -47 61 -54 0 -19 -148 -154 -177 -161 -57 -15 -81
77 -44 162 49 110 66 116 160 53z m-32 -267 c-30 -53 -51 -78 -66 -80 -16 -3
-21 2 -21 20 0 29 20 59 79 121 63 65 66 38 8 -61z m-166 71 c30 -80 50 -176
39 -187 -15 -14 -40 18 -40 51 0 19 -5 23 -28 23 -54 0 -64 29 -31 97 24 49
45 55 60 16z m-461 -6 c0 -8 -29 -42 -64 -75 -80 -77 -99 -79 -164 -18 -34 33
-44 48 -36 56 10 10 189 46 242 49 12 1 22 -5 22 -12z m120 -52 c0 -24 -171
-375 -275 -564 -60 -109 -95 -148 -95 -106 0 8 47 109 105 225 110 220 198
410 193 416 -2 1 -21 -28 -43 -66 -21 -39 -47 -72 -58 -76 -22 -7 -57 21 -57
45 0 22 124 140 151 145 8 1 23 7 34 13 25 14 45 0 45 -32z m-500 -20 c0 -21
-35 -88 -54 -104 -25 -21 -31 10 -11 51 31 59 65 87 65 53z m618 -7 c32 -32
-15 -142 -95 -226 -99 -103 -93 16 10 186 32 53 59 66 85 40z m159 -44 c32
-25 44 -54 21 -54 -18 0 -78 50 -78 66 0 21 19 17 57 -12z m-702 -35 c31 -92
22 -112 -76 -185 -93 -68 -105 -28 -32 105 57 106 73 131 83 131 5 0 16 -23
25 -51z m655 -14 c10 -12 7 -19 -16 -40 -31 -29 -52 -32 -61 -9 -6 16 32 64
53 64 6 0 17 -7 24 -15z m105 -76 c32 -31 2 -51 -89 -57 -64 -4 -77 -2 -82 12
-9 24 13 44 65 60 52 16 77 13 106 -15z m-569 -11 c33 -29 36 -36 31 -72 -6
-43 -36 -91 -58 -91 -36 0 -78 167 -48 186 23 15 37 10 75 -23z m-118 -104
c28 -19 29 -67 3 -110 -20 -34 -172 -167 -225 -198 -54 -32 -66 -19 -66 71 l0
78 69 66 c68 66 138 109 176 109 11 0 31 -7 43 -16z m627 -4 c0 -18 -241 -141
-269 -138 -28 4 -29 20 -4 58 40 59 138 101 228 97 32 -1 45 -6 45 -17z m-309
-34 c7 -18 -24 -66 -42 -66 -19 0 -18 40 3 62 19 22 32 23 39 4z m369 -6 c3
-5 -3 -27 -14 -48 -51 -101 -192 -235 -241 -230 -27 3 -100 91 -100 121 0 19
50 45 245 128 100 43 101 43 110 29z m-667 -163 c5 -24 -93 -226 -125 -259
-21 -22 -36 -28 -71 -28 -60 0 -82 14 -82 52 0 34 20 55 169 186 82 72 103 81
109 49z m168 -54 c-9 -36 -97 -184 -114 -190 -34 -14 -23 20 47 140 45 78 80
104 67 50z m126 15 c26 -21 58 -81 58 -109 0 -31 -62 -92 -88 -87 -47 9 -70
150 -32 188 23 23 40 25 62 8z m-3167 -109 c-75 -76 -310 -293 -393 -363 -12
-11 -25 -16 -29 -12 -8 8 313 334 421 428 49 43 71 57 79 49 8 -8 -13 -36 -78
-102z m2535 75 c18 -47 12 -93 -16 -119 -34 -31 -61 -40 -79 -25 -21 17 -19
33 10 89 41 82 68 100 85 55z m-2119 -52 c-16 -31 -572 -592 -586 -592 -28 0
-24 20 14 67 52 67 560 543 578 543 2 0 -1 -8 -6 -18z m2969 -2 c0 -36 -39
-102 -58 -98 -29 6 -25 44 8 82 36 41 50 45 50 16z m-316 -37 c27 -97 13 -129
-92 -216 -72 -61 -102 -78 -102 -61 0 9 95 177 137 242 35 55 49 63 57 35z
m3514 -15 c18 -18 15 -68 -3 -68 -8 0 -15 5 -15 12 0 6 -7 19 -16 29 -26 29 6
55 34 27z m-3298 -63 c17 -20 7 -67 -33 -150 -43 -89 -60 -105 -80 -73 -22 34
-41 121 -33 152 8 31 79 86 111 86 13 0 28 -7 35 -15z m-730 -23 c0 -10 -5
-23 -12 -30 -18 -18 -48 -15 -48 6 0 10 5 23 12 30 18 18 48 15 48 -6z m224
-95 c-15 -34 -97 -210 -182 -392 -85 -181 -181 -388 -213 -459 -33 -71 -70
-143 -82 -160 -13 -17 -34 -56 -46 -86 -40 -94 -224 -469 -308 -625 -124 -234
-123 -232 -123 -246 0 -5 -11 -25 -25 -43 -14 -18 -25 -38 -25 -44 0 -15 -36
-16 -45 -2 -3 5 13 49 36 97 22 49 48 104 56 123 l15 35 -36 -35 c-20 -19 -34
-40 -31 -47 8 -22 -35 -123 -66 -157 l-29 -31 -20 24 c-38 45 -19 145 33 168
19 9 23 17 20 38 -4 20 9 48 61 126 116 175 174 223 163 137 -6 -51 -8 -53 76
102 35 63 68 124 74 135 7 11 26 54 44 95 17 41 99 214 180 384 82 170 149
310 149 312 0 2 -7 4 -15 4 -23 0 -37 38 -42 121 l-6 78 36 36 c19 19 40 35
46 35 18 0 31 -46 31 -113 l0 -62 126 245 c69 134 135 258 147 275 34 47 35 6
1 -68z m-76 -5 c4 -24 -22 -72 -38 -72 -14 0 -40 68 -33 86 4 10 16 14 37 12
24 -2 32 -8 34 -26z m-118 -19 c24 -31 23 -76 -2 -81 -21 -4 -58 51 -58 86 0
31 33 29 60 -5z m-148 -3 c34 -26 52 -98 38 -148 -5 -21 -23 -51 -39 -67 -25
-23 -33 -26 -45 -15 -22 18 -36 75 -36 148 0 49 4 66 20 82 25 25 31 25 62 0z
m678 1 c18 -35 12 -135 -9 -163 -51 -64 -241 -66 -241 -2 0 7 39 46 88 86 124
105 143 114 162 79z m-787 -116 c5 -28 13 -73 19 -101 13 -61 0 -94 -36 -94
-30 0 -45 37 -53 132 -5 54 -2 72 11 93 27 40 50 29 59 -30z m787 -130 c0 -9
-16 -47 -36 -86 -29 -58 -39 -70 -55 -66 -16 4 -19 0 -19 -34 0 -50 -37 -123
-87 -170 -41 -40 -131 -89 -161 -89 -12 0 -24 -12 -32 -31 -19 -45 -84 -89
-131 -89 -45 0 -69 27 -69 78 0 37 22 62 102 113 43 28 53 31 70 20 11 -7 21
-11 22 -9 2 2 15 26 31 55 34 64 117 158 157 179 17 9 43 14 58 11 23 -5 28
-1 39 29 25 70 111 138 111 89z m-906 -4 c11 -17 19 -99 12 -125 -4 -17 -42
-54 -107 -106 -94 -75 -126 -91 -112 -54 11 29 125 238 145 267 19 26 51 36
62 18z m665 -22 c25 -9 31 -16 31 -41 0 -23 -13 -42 -62 -88 -33 -32 -76 -67
-95 -77 -30 -16 -34 -16 -49 -1 -10 10 -18 40 -21 80 -5 57 -3 67 18 92 35 40
116 56 178 35z m-500 -128 c16 -38 11 -116 -8 -116 -25 0 -54 118 -34 138 14
15 31 6 42 -22z m-2771 -3 c19 -19 14 -65 -10 -93 -19 -21 -39 -28 -118 -41
-52 -8 -160 -30 -240 -49 -163 -38 -351 -75 -381 -75 -24 0 -25 27 -1 34 56
16 598 147 651 157 49 9 59 14 46 22 -22 12 -76 5 -295 -37 -241 -47 -238 -47
-246 -35 -10 17 12 26 146 59 249 60 423 83 448 58z m73 -65 c12 -31 6 -53
-15 -53 -18 0 -30 33 -21 60 9 28 24 25 36 -7z m2598 -25 c5 -18 15 -59 22
-91 15 -71 10 -76 -71 -77 -30 0 -86 -5 -125 -10 -54 -7 -73 -6 -83 4 -26 26
12 66 152 163 75 51 91 53 105 11z m397 -10 c7 -23 -17 -53 -60 -75 -42 -22
-55 -4 -30 43 33 62 75 77 90 32z m-2790 -144 c7 -27 -10 -227 -22 -257 -17
-46 -50 -5 -108 135 -46 111 -46 118 2 118 20 1 51 7 67 15 44 20 54 18 61
-11z m-1190 -102 c-5 -39 -4 -43 12 -37 59 25 118 10 159 -40 16 -18 42 -36
59 -39 29 -7 31 -5 27 17 -4 23 0 24 139 55 275 61 334 64 376 19 12 -12 25
-41 30 -62 8 -40 8 -39 21 39 16 100 19 106 42 106 26 0 25 -20 -15 -212 -19
-89 -45 -210 -56 -268 -24 -114 -31 -132 -51 -137 -8 -1 -43 -9 -77 -17 -35
-8 -81 -26 -102 -41 -77 -53 -509 -469 -499 -480 2 -2 17 -1 32 2 19 4 32 15
41 37 18 42 178 196 204 196 11 0 25 -6 31 -14 16 -19 52 -127 46 -136 -11
-17 13 -18 76 -4 91 21 96 25 71 62 -29 40 -82 174 -82 206 0 58 119 150 187
144 l38 -3 -2 -78 c-2 -46 1 -76 6 -72 5 3 13 1 16 -5 8 -14 -3 -101 -16 -120
-8 -13 -11 -12 -23 3 -13 16 -14 16 -20 -7 -3 -13 -9 -32 -12 -43 -6 -15 -4
-16 7 -5 20 19 28 15 37 -20 8 -32 8 -32 25 29 26 90 42 93 34 7 -6 -77 -23
-124 -44 -124 -7 0 -13 -11 -13 -27 0 -23 2 -25 13 -11 32 40 87 19 87 -32 0
-36 -38 -65 -70 -55 -18 6 -20 4 -14 -19 9 -38 -22 -34 -44 5 -35 63 -44 69
-121 81 -92 14 -273 -2 -448 -38 -68 -14 -128 -22 -133 -19 -21 13 -8 51 36
107 34 44 41 58 28 58 -24 0 -17 55 45 365 58 289 68 328 84 322 6 -2 43 -95
81 -208 38 -112 71 -206 72 -208 2 -2 10 2 19 9 19 16 19 38 1 76 -24 51 -30
77 -15 72 12 -4 52 -64 62 -93 2 -6 14 -5 32 3 25 11 26 14 13 30 -20 22 -94
215 -110 282 -11 47 -10 54 6 65 15 12 7 20 -81 78 -54 35 -116 70 -138 77
-22 7 -59 22 -82 35 l-41 23 -11 -62 c-15 -83 -13 -90 7 -36 10 25 24 45 32
45 35 0 24 -89 -66 -539 -61 -306 -90 -420 -110 -437 -21 -17 -47 -3 -41 24
19 81 17 91 -5 37 -23 -54 -24 -55 -63 -55 -36 0 -40 3 -43 28 -3 25 147 673
220 947 39 150 53 175 86 163 11 -5 13 -17 8 -51z m4179 48 c11 -18 -43 -99
-70 -106 -20 -5 -24 -11 -19 -29 7 -29 -19 -80 -51 -101 -88 -57 -145 42 -71
121 30 31 40 36 71 33 33 -2 38 1 50 28 20 48 74 80 90 54z m-597 -22 c3 -17
-176 -184 -213 -198 -13 -5 -36 1 -70 20 -44 24 -51 32 -58 68 -4 23 -12 42
-18 42 -5 0 -9 -4 -9 -10 0 -16 -17 -12 -24 6 -8 20 9 51 35 65 23 12 193 27
289 25 52 -1 65 -4 68 -18z m240 -86 c13 -23 21 -50 18 -59 -9 -28 -134 -109
-148 -95 -14 14 77 205 95 199 7 -2 22 -22 35 -45z m-248 -47 c0 -25 -29 -88
-53 -113 -27 -30 -74 -55 -87 -47 -21 13 -7 40 57 106 68 71 83 80 83 54z
m308 -76 c3 -17 -36 -39 -68 -39 -27 0 -25 25 3 45 27 19 61 16 65 -6z m-2817
-51 c23 -29 53 -77 67 -106 29 -64 152 -401 152 -418 0 -27 -319 -416 -366
-445 -18 -11 -44 -19 -56 -17 -21 3 -23 8 -21 58 2 71 120 904 134 948 15 47
41 41 90 -20z m2773 -124 c19 -19 19 -18 2 -52 -8 -15 -32 -37 -55 -50 l-40
-23 -21 21 c-13 13 -20 33 -20 60 0 36 3 40 33 49 49 14 84 13 101 -5z m-175
-30 c30 -38 45 -102 32 -130 -14 -31 -88 -84 -117 -84 -34 0 -58 41 -49 82 14
65 75 158 104 158 5 0 19 -12 30 -26z m-651 -81 c3 -36 -1 -44 -23 -59 -24
-15 -28 -16 -42 -2 -13 14 -13 20 6 63 27 61 55 60 59 -2z m882 15 c-1 -7 -18
-47 -38 -88 -28 -56 -43 -76 -60 -78 -18 -3 -26 4 -38 33 -21 50 -12 69 54
110 59 37 82 43 82 23z m-141 -153 c18 -71 14 -110 -15 -144 -39 -46 -89 -38
-119 19 -27 52 -20 78 40 138 63 63 75 61 94 -13z m-596 13 c10 -30 -105 -218
-133 -218 -10 0 -22 12 -28 28 -46 119 -1 202 110 202 28 0 48 -5 51 -12z
m365 -10 c7 -7 12 -18 12 -24 0 -18 -50 -74 -66 -74 -20 0 -17 40 6 78 21 35
30 38 48 20z m65 -125 c14 -25 16 -36 7 -52 -9 -17 -6 -23 14 -36 30 -20 50
-66 41 -95 -6 -20 -163 -157 -206 -180 -15 -9 -24 -8 -36 2 -38 31 -56 134
-32 181 6 12 25 37 42 55 29 30 30 32 9 32 -38 0 -25 26 39 80 71 58 94 61
122 13z m-650 -35 c9 -24 23 -64 33 -90 15 -44 15 -49 0 -72 -24 -38 -55 -51
-73 -33 -17 16 -30 167 -19 211 10 42 42 34 59 -16z m-2494 -41 c6 -8 14 -28
17 -45 8 -40 -17 -45 -34 -7 -22 49 -11 84 17 52z m2378 -67 c29 -142 13 -180
-77 -180 -105 0 -107 40 -13 188 26 42 38 53 56 50 18 -2 24 -13 34 -58z
m-1498 -12 c44 -138 92 -319 89 -340 -3 -21 -9 -23 -68 -26 -77 -4 -351 25
-364 38 -12 12 21 62 118 185 98 123 175 205 192 205 7 0 22 -28 33 -62z
m-478 -15 c21 -57 -17 -159 -51 -138 -34 21 -30 113 6 150 22 22 33 19 45 -12z
m-2783 0 c2 -9 -7 -13 -27 -13 -32 0 -50 15 -29 24 21 8 51 2 56 -11z m5289
-162 c27 -86 25 -94 -49 -152 -59 -46 -91 -49 -96 -8 -6 48 87 244 111 236 6
-2 22 -36 34 -76z m233 17 c0 -43 -98 -188 -126 -188 -20 0 -35 36 -28 65 6
24 126 145 144 145 6 0 10 -10 10 -22z m-872 -76 c5 -30 -35 -74 -63 -70 -27
4 -33 59 -9 82 24 25 68 17 72 -12z m120 -49 c-4 -22 -82 -77 -99 -71 -10 3
-1 18 27 46 43 44 78 55 72 25z m576 -48 c3 -9 -3 -23 -14 -32 -19 -16 -19
-17 3 -28 62 -30 2 -187 -91 -234 -121 -61 -215 -18 -176 79 25 63 152 160
209 160 12 0 13 3 3 19 -9 15 -9 23 1 35 17 20 57 21 65 1z m-828 -20 c10 -24
-4 -63 -35 -97 -24 -27 -31 -30 -44 -20 -19 16 -9 57 23 102 23 32 47 39 56
15z m325 -66 c10 -19 7 -59 -7 -107 -3 -9 6 4 21 31 14 26 32 47 40 47 19 0
19 -5 0 -65 -8 -27 -13 -50 -12 -52 2 -1 13 18 26 43 21 39 51 60 51 35 0 -5
9 -7 20 -4 16 4 20 0 20 -20 0 -35 -52 -176 -143 -387 -113 -262 -142 -324
-161 -339 -26 -22 -38 3 -31 62 5 41 3 51 -15 65 -11 9 -29 40 -40 67 -10 28
-19 47 -20 43 0 -10 108 -446 124 -497 34 -110 29 -151 -19 -151 -31 0 -41 16
-49 80 -16 124 -102 432 -163 579 -20 50 -33 96 -31 115 3 27 7 31 36 34 43 4
59 -10 76 -67 l13 -46 5 90 c4 78 9 100 40 162 41 82 141 247 171 281 25 27
33 28 48 1z m-181 -20 c0 -31 -67 -109 -92 -109 -20 0 -5 44 28 80 35 39 64
52 64 29z m-135 -173 c0 -63 -19 -77 -69 -53 -23 11 -36 24 -36 36 0 25 59 72
85 69 17 -3 20 -11 20 -52z m-2531 -25 c3 -5 -1 -12 -10 -15 -35 -13 -99 -2
-88 15 3 5 25 9 49 9 24 0 46 -4 49 -9z m626 -41 c0 -5 -22 -10 -50 -10 -27 0
-50 5 -50 10 0 6 23 10 50 10 28 0 50 -4 50 -10z m575 -25 c349 -19 574 -34
603 -40 12 -3 22 -10 22 -17 0 -15 -321 -6 -730 22 -334 22 -360 25 -360 40 0
14 149 12 465 -5z m2015 -6 c0 -12 -53 -123 -119 -248 -65 -124 -153 -295
-196 -379 -43 -84 -85 -157 -92 -163 -26 -22 -13 30 33 133 77 171 301 621
324 651 26 32 50 35 50 6z m-163 -16 c-2 -10 -8 -27 -12 -38 -4 -11 5 -3 19
18 30 41 46 47 46 17 0 -38 -317 -731 -337 -738 -7 -2 -13 3 -13 11 0 13 160
395 239 571 17 38 30 70 28 72 -1 2 -18 -26 -37 -62 -40 -72 -68 -89 -46 -26
15 43 73 161 88 180 15 18 31 15 25 -5z m-709 -169 c45 -29 13 -115 -37 -99
-21 6 -61 71 -61 99 0 28 52 28 98 0z m-103 -64 c19 -38 35 -81 35 -95 0 -37
-28 -97 -42 -93 -24 8 -62 258 -40 258 7 0 28 -31 47 -70z m685 -45 c0 -35
-55 -119 -71 -109 -10 6 4 46 32 91 22 35 39 43 39 18z m-429 -152 c27 -80 32
-189 10 -203 -18 -11 -51 5 -51 25 0 7 5 15 12 17 15 5 -39 98 -58 98 -42 0
-45 129 -3 161 24 18 24 18 45 -5 12 -14 32 -55 45 -93z m-1366 -186 c39 -7
69 -16 67 -22 -5 -19 -290 0 -325 22 -4 2 -4 9 -1 15 8 12 147 4 259 -15z
m230 -22 c0 -12 -40 -19 -61 -11 -9 3 -12 11 -9 16 8 14 70 9 70 -5z m-367
-107 c4 -21 -15 -23 -88 -7 -72 15 -62 30 17 27 55 -2 68 -6 71 -20z m327
-205 c8 -27 8 -28 14 -5 11 44 26 22 31 -45 l5 -68 8 42 c19 93 39 48 31 -67
-8 -121 -13 -141 -32 -138 -14 2 -18 -6 -20 -42 -7 -128 -32 -113 -32 19 0 85
-3 100 -20 116 -17 16 -20 31 -20 117 0 77 3 98 14 98 8 0 17 -12 21 -27z
m-63 -59 c13 -92 22 -614 11 -614 -13 0 -23 47 -23 105 0 23 -7 59 -15 78 -8
20 -15 58 -16 84 l-1 48 -13 -53 c-7 -30 -16 -56 -20 -60 -8 -9 -25 18 -25 42
0 10 -7 24 -16 30 -40 30 -77 347 -39 332 8 -3 15 -2 15 2 0 5 6 17 14 27 13
18 15 18 43 -11 16 -16 32 -36 36 -44 3 -8 6 6 6 31 1 25 4 49 8 53 15 15 28
-3 35 -50z m1396 -20 l23 -5 -6 -207 c-3 -114 -8 -218 -11 -231 l-5 -24 -159
5 c-172 5 -201 13 -220 64 -14 37 -13 337 2 369 6 14 23 28 40 33 30 7 297 5
336 -4z m-1245 -300 c5 -21 6 -77 4 -122 -5 -86 -19 -121 -37 -92 -11 17 -14
219 -4 245 10 26 28 12 37 -31z m-258 -227 c8 -71 13 -92 25 -92 10 0 16 12
18 33 2 17 7 32 12 32 11 0 40 -64 40 -86 0 -19 -106 -88 -123 -81 -11 4 -13
15 -6 49 11 60 11 60 -10 53 -37 -11 -57 69 -25 96 14 11 18 10 30 -6 13 -17
14 -12 14 45 0 89 13 66 25 -43z m-1988 57 c40 -3 75 -10 79 -15 3 -5 -3 -9
-13 -9 -10 0 -83 -5 -163 -11 -80 -6 -164 -7 -188 -4 -44 7 -66 30 -42 45 13
8 186 5 327 -6z m2193 -39 c0 -37 -13 -47 -24 -19 -8 20 2 54 15 54 5 0 9 -16
9 -35z m-2226 -33 c92 -5 141 -11 143 -19 10 -30 -323 -31 -353 -1 -24 23 -9
37 34 31 20 -2 100 -8 176 -11z m2266 -30 c0 -28 -194 -182 -228 -182 -27 0
-6 22 103 105 109 83 125 93 125 77z m-4213 -18 c8 -21 -30 -59 -51 -51 -19 7
-21 38 -4 55 17 17 48 15 55 -4z m2021 -42 c51 -15 18 -27 -68 -26 -103 2
-160 11 -160 24 0 11 191 12 228 2z m-328 -39 c0 -8 -5 -24 -11 -35 -11 -21
-12 -21 -25 -3 -17 24 -18 62 -1 68 16 6 37 -11 37 -30z m-1703 1 c7 -19 -30
-59 -46 -50 -15 9 -14 39 1 54 17 17 37 15 45 -4z m1624 -5 c16 -8 18 -13 8
-25 -23 -28 -68 -11 -55 21 6 18 20 19 47 4z m512 -34 c10 -4 16 -13 14 -19
-3 -8 -59 -11 -183 -11 -159 0 -179 2 -182 17 -2 11 5 18 25 21 40 7 304 0
326 -8z m-2147 -40 c7 -18 -13 -45 -33 -45 -19 0 -28 27 -13 45 16 19 39 19
46 0z m2053 -50 c23 -24 -186 -47 -273 -31 -49 9 -41 29 15 38 47 7 249 1 258
-7z m-2057 -47 c-8 -8 -9 -15 -1 -25 17 -20 3 -43 -26 -43 -25 0 -35 23 -15
35 6 4 5 13 -3 26 -10 17 -9 22 8 35 17 12 21 12 34 -1 12 -11 12 -18 3 -27z
m4450 -166 c25 -25 -15 -32 -194 -32 -183 0 -208 3 -208 25 0 21 24 24 212 22
129 -2 180 -5 190 -15z m-3214 -154 c-9 -25 -312 -35 -349 -12 -29 17 20 24
177 24 136 0 175 -3 172 -12z m705 -24 c15 -4 27 -11 27 -17 0 -6 -41 -8 -122
-4 -131 6 -168 13 -168 30 0 10 208 3 263 -9z m2195 -143 c229 -7 276 -11 289
-24 14 -13 14 -19 3 -32 -11 -13 -29 -15 -124 -9 l-111 7 3 -78 c2 -44 -1 -82
-7 -88 -14 -14 -25 33 -26 105 l0 56 -160 6 c-88 3 -326 11 -530 16 -377 11
-455 16 -455 31 0 4 15 10 33 12 60 7 809 6 1085 -2z m-860 -207 c-2 -89 -6
-109 -18 -109 -12 0 -16 19 -18 104 -2 69 1 108 9 117 23 27 30 -2 27 -112z
m263 95 c13 -44 10 -89 -5 -89 -18 0 -26 22 -26 77 0 49 19 56 31 12z m-963
-11 c16 -16 15 -63 -1 -77 -19 -15 -37 6 -37 44 0 44 14 57 38 33z m938 -229
c519 -6 684 -14 684 -30 0 -5 -12 -9 -27 -9 -16 0 -194 -3 -398 -6 -384 -5
-1028 6 -1041 19 -19 19 23 31 121 35 120 5 109 -5 120 116 11 112 20 109 25
-9 l5 -110 511 -6z m-1796 191 c0 -23 -56 -90 -76 -90 -21 0 -17 22 11 60 38
52 65 65 65 30z m164 11 c11 -18 -6 -41 -30 -41 -17 0 -24 6 -24 18 0 10 3 22
7 25 9 10 41 8 47 -2z m174 3 c37 -10 26 -33 -20 -41 -24 -3 -37 -8 -30 -11
18 -6 15 -30 -7 -44 -18 -11 -18 -12 4 -30 25 -20 55 -24 55 -8 0 6 -7 10 -15
10 -8 0 -15 3 -15 7 0 14 34 43 52 43 20 0 24 -15 6 -26 -7 -5 -5 -11 7 -21
23 -16 49 -17 74 -1 14 9 23 8 42 -5 22 -16 24 -15 47 6 23 21 24 21 37 3 8
-10 16 -24 18 -30 3 -7 11 -5 24 7 35 31 154 16 194 -24 17 -17 19 -34 19
-174 0 -95 -4 -164 -12 -179 -15 -34 -60 -46 -168 -46 -47 0 -102 -3 -124 -7
l-38 -6 33 -15 c44 -18 126 -20 167 -3 50 21 121 9 150 -25 24 -27 24 -31 20
-168 -3 -83 -9 -150 -16 -163 -24 -44 -92 -38 -77 7 3 9 -1 7 -10 -4 -8 -11
-15 -23 -15 -28 0 -4 -7 -8 -15 -8 -9 0 -15 9 -15 22 0 21 -1 21 -13 3 -16
-20 -37 -13 -37 13 -1 13 -6 10 -21 -11 -25 -33 -39 -35 -39 -5 0 21 0 21 -20
3 -19 -17 -22 -17 -37 -3 -13 13 -20 14 -36 5 -15 -9 -21 -9 -24 0 -3 10 -9
10 -24 0 -14 -9 -23 -9 -38 0 -13 8 -22 8 -29 1 -16 -16 -32 0 -32 31 0 37 22
57 40 37 9 -12 16 -13 31 -3 17 10 22 9 33 -5 12 -17 14 -17 31 2 12 13 22 17
29 11 7 -6 18 -4 30 4 23 18 46 9 46 -19 0 -21 1 -20 19 3 12 16 24 22 35 18
10 -4 16 -1 16 7 0 8 3 22 6 30 5 12 1 16 -17 14 -27 -3 -36 23 -24 69 4 19
11 24 25 20 14 -4 20 0 20 12 0 16 -14 19 -112 24 -62 4 -183 7 -270 7 l-156
0 5 -37 c7 -53 -23 -90 -71 -89 -20 1 -41 7 -47 13 -15 15 -4 77 16 93 25 21
17 30 -29 30 -31 0 -46 -5 -50 -16 -10 -25 -6 -41 5 -21 5 9 17 17 26 17 13 0
15 -13 12 -79 -4 -72 -3 -78 12 -65 23 21 38 17 49 -11 6 -15 15 -23 23 -19 8
3 20 -2 27 -11 10 -12 16 -13 27 -4 10 9 18 8 33 -6 11 -10 20 -13 20 -7 0 6
11 19 25 28 24 15 27 15 43 0 15 -12 21 -13 31 -3 10 9 15 8 27 -7 29 -41 4
-105 -31 -76 -12 10 -15 10 -15 -3 0 -26 -32 -29 -63 -7 -23 17 -31 19 -43 9
-11 -9 -18 -9 -26 -1 -8 8 -16 7 -29 -1 -15 -9 -21 -8 -32 7 -12 16 -14 16
-26 2 -20 -23 -40 -20 -53 10 -12 25 -12 25 -20 5 -13 -37 -35 -24 -43 25 -6
42 -8 44 -21 27 -13 -17 -15 -17 -27 -1 -10 13 -17 14 -25 6 -16 -16 -25 45
-21 146 6 128 32 146 217 146 84 0 102 3 102 15 0 12 -13 15 -55 15 -43 0 -57
4 -67 19 -11 18 -14 18 -44 4 -37 -18 -67 -12 -58 12 5 13 2 14 -18 6 -40 -15
-63 13 -46 58 4 13 5 29 0 35 -13 17 -14 180 -2 225 6 23 19 45 30 51 30 16
155 13 170 -4 10 -13 16 -12 42 4 25 15 35 16 55 7 17 -8 27 -7 35 1 9 9 8 12
-6 12 -28 0 -15 41 21 66 l32 21 -27 13 c-26 11 -26 12 -7 26 19 14 73 18 113
8z m122 -13 c0 -20 -18 -31 -51 -31 -25 0 -24 15 3 34 30 21 48 20 48 -3z
m338 -24 c16 -13 15 -42 -1 -56 -20 -16 -182 -27 -191 -12 -10 16 51 68 93 79
38 10 78 6 99 -11z m-773 -27 c8 -14 -13 -50 -30 -50 -21 0 -27 17 -15 40 11
21 35 27 45 10z m83 -2 c9 -9 15 -9 24 0 15 15 54 16 63 2 3 -5 -10 -19 -29
-31 -20 -12 -36 -25 -36 -30 0 -5 -9 -9 -20 -9 -11 0 -20 5 -20 10 0 6 -6 10
-13 10 -23 0 -37 21 -26 42 11 21 39 24 57 6z m2150 -77 c3 -22 -13 -51 -28
-51 -14 0 -20 30 -10 56 12 30 34 27 38 -5z m640 -93 c24 -24 12 -31 -50 -24
-83 9 -109 16 -102 27 8 14 138 11 152 -3z m93 -95 c13 -93 -8 -167 -31 -108
-11 30 -14 168 -3 179 13 13 26 -14 34 -71z m-1661 -181 c52 -19 -12 -27 -213
-26 -144 1 -212 5 -220 13 -27 27 17 32 214 27 108 -3 207 -9 219 -14z m1322
-29 c9 -10 9 -16 0 -25 -9 -9 -8 -15 3 -28 8 -9 19 -50 25 -91 5 -41 17 -96
26 -122 20 -60 12 -71 -41 -55 -25 8 -116 12 -245 13 -182 0 -211 -2 -255 -20
-48 -19 -71 -20 -655 -17 -333 1 -613 5 -624 8 -16 5 -17 13 -11 83 9 94 23
137 61 184 33 42 40 45 49 18 11 -34 7 -34 450 -29 33 0 113 -5 177 -12 104
-11 121 -11 152 4 63 30 329 15 633 -34 131 -21 153 -18 153 20 0 9 9 29 20
43 l20 26 -52 5 c-29 3 -111 8 -183 11 -269 13 -204 34 97 31 135 -1 191 -5
200 -13z m226 -63 c-4 -59 -19 -66 -32 -15 -10 42 -3 65 19 65 13 0 15 -10 13
-50z m752 -115 c15 -18 4 -52 -20 -60 -40 -13 -54 23 -23 57 20 22 27 22 43 3z
m-3430 -50 c15 -14 18 -14 30 0 16 20 37 19 48 -2 9 -16 11 -16 27 0 20 20 27
21 44 5 11 -10 14 -10 18 0 6 17 28 15 43 -3 12 -14 15 -14 31 1 13 11 22 13
35 6 12 -7 24 -6 36 2 16 9 21 8 29 -7 7 -12 17 -15 35 -11 19 5 24 2 24 -14
0 -23 -23 -35 -38 -20 -8 8 -16 8 -27 -2 -11 -10 -18 -10 -29 -1 -11 9 -19 9
-34 0 -16 -10 -23 -10 -36 0 -13 11 -19 11 -31 1 -12 -10 -18 -10 -30 0 -12
10 -18 10 -30 0 -16 -13 -55 -5 -55 12 0 6 -9 3 -21 -8 -17 -15 -23 -16 -40
-6 -16 10 -20 10 -25 -3 -4 -8 -15 -15 -25 -15 -23 0 -36 44 -19 65 16 19 19
19 40 0z"/>
<path d="M3668 4941 c-13 -15 -13 -22 -3 -42 13 -23 13 -23 20 14 9 45 4 53
-17 28z"/>
<path d="M3532 4832 c1 -16 -3 -35 -7 -43 -5 -8 1 -5 13 5 26 22 28 39 8 55
-12 10 -15 7 -14 -17z"/>
<path d="M5706 3451 c-5 -7 -17 -11 -27 -8 -14 4 -21 -3 -29 -29 -13 -38 -10
-76 5 -81 13 -4 68 102 63 119 -3 9 -6 9 -12 -1z"/>
<path d="M1982 929 c-12 -5 -37 -8 -55 -7 -32 1 -87 -26 -87 -43 0 -5 12 -4
26 1 46 18 122 12 144 -10 19 -19 22 -19 50 -5 37 19 57 19 68 -1 8 -15 15
-15 80 0 39 9 109 16 156 16 75 0 87 -3 98 -20 7 -11 18 -20 24 -20 16 0 47
37 40 48 -8 13 -124 25 -401 42 -5 1 -29 -2 -52 -6 -25 -4 -48 -2 -55 4 -8 6
-22 6 -36 1z"/>
<path d="M1921 769 c-16 -6 -21 -13 -15 -19 7 -7 20 -6 37 2 48 23 28 37 -22
17z"/>
<path d="M2032 772 c-14 -4 -30 -21 -38 -41 -13 -31 -13 -33 4 -26 43 19 121
24 297 19 105 -3 204 -1 220 4 28 8 25 9 -30 15 -33 4 -130 11 -215 17 -85 5
-168 11 -185 14 -16 3 -41 2 -53 -2z"/>
<path d="M2073 583 c-28 -11 -10 -24 29 -21 51 4 66 28 16 27 -18 0 -39 -3
-45 -6z"/>
<path d="M2264 575 c21 -16 32 -13 21 4 -3 6 -14 11 -23 11 -15 -1 -15 -2 2
-15z"/>
<path d="M1920 456 c0 -2 6 -9 14 -15 10 -9 15 -8 20 4 4 10 -1 15 -14 15 -11
0 -20 -2 -20 -4z"/>
<path d="M6399 8023 c-8 -9 -34 -29 -58 -45 -51 -32 -44 -39 7 -8 20 12 50 20
79 20 l46 0 -23 25 c-28 30 -33 30 -51 8z"/>
<path d="M6556 8005 c-11 -8 -28 -15 -38 -15 -23 0 -23 -5 3 -39 19 -26 25
-28 50 -19 26 9 63 41 43 37 -28 -5 -36 2 -30 26 7 28 0 31 -28 10z"/>
<path d="M6450 7935 c7 -8 20 -15 29 -15 13 1 13 3 -3 15 -26 19 -42 19 -26 0z"/>
<path d="M6350 7920 c-24 -18 -24 -19 -3 -14 12 4 28 12 34 20 17 20 -2 17
-31 -6z"/>
<path d="M5464 7658 c-10 -16 4 -20 33 -11 l28 10 -28 5 c-15 3 -30 1 -33 -4z"/>
<path d="M5345 7048 l-50 -53 53 50 c48 46 57 55 49 55 -1 0 -25 -24 -52 -52z"/>
<path d="M4829 7053 l-24 -28 28 24 c25 23 32 31 24 31 -2 0 -14 -12 -28 -27z"/>
<path d="M5110 6833 c-74 -69 -337 -312 -585 -538 -420 -385 -592 -549 -537
-513 13 9 87 76 165 150 78 74 318 296 532 493 381 351 575 535 565 534 -3 0
-66 -57 -140 -126z"/>
<path d="M5395 6888 l-50 -53 53 50 c48 46 57 55 49 55 -1 0 -25 -24 -52 -52z"/>
<path d="M4529 6793 c-13 -16 -12 -17 4 -4 16 13 21 21 13 21 -2 0 -10 -8 -17
-17z"/>
<path d="M4794 6318 l-19 -23 23 19 c21 18 27 26 19 26 -2 0 -12 -10 -23 -22z"/>
<path d="M4564 6098 l-19 -23 23 19 c21 18 27 26 19 26 -2 0 -12 -10 -23 -22z"/>
<path d="M4339 5883 l-24 -28 28 24 c25 23 32 31 24 31 -2 0 -14 -12 -28 -27z"/>
<path d="M4025 5560 c20 -22 31 -20 22 5 -4 8 -14 15 -23 15 -16 0 -16 -2 1
-20z"/>
<path d="M5647 4593 c-187 -341 -210 -383 -203 -383 2 0 67 114 144 253 174
315 245 447 239 447 -2 0 -83 -143 -180 -317z"/>
<path d="M778 4083 c7 -3 16 -2 19 1 4 3 -2 6 -13 5 -11 0 -14 -3 -6 -6z"/>
<path d="M728 4073 c7 -3 16 -2 19 1 4 3 -2 6 -13 5 -11 0 -14 -3 -6 -6z"/>
<path d="M978 4003 c7 -3 16 -2 19 1 4 3 -2 6 -13 5 -11 0 -14 -3 -6 -6z"/>
<path d="M215 3761 c-9 -39 -15 -74 -13 -78 1 -5 19 0 38 9 23 12 28 18 16 18
-13 0 -17 5 -13 20 3 11 1 20 -4 20 -20 0 -7 28 19 40 19 9 23 14 12 18 -8 2
-20 9 -26 14 -8 6 -17 -12 -29 -61z"/>
<path d="M4908 3743 c23 -2 61 -2 85 0 23 2 4 4 -43 4 -47 0 -66 -2 -42 -4z"/>
<path d="M478 3703 c7 -3 16 -2 19 1 4 3 -2 6 -13 5 -11 0 -14 -3 -6 -6z"/>
<path d="M330 3670 c-12 -8 -9 -10 12 -10 15 0 30 5 33 10 8 13 -25 13 -45 0z"/>
<path d="M480 3451 c-58 -10 -111 -20 -117 -24 -7 -4 -18 -26 -24 -47 -14 -45
-26 -51 -38 -18 -7 19 -9 16 -19 -23 -6 -24 -13 -87 -16 -139 -4 -85 -4 -88 4
-28 9 76 15 88 37 88 14 0 15 -13 9 -97 -17 -266 -19 -381 -6 -431 6 -29 15
-54 19 -56 3 -2 6 73 6 167 0 170 6 227 25 227 28 0 35 -49 35 -232 0 -104 3
-188 7 -188 27 0 239 33 266 41 37 12 37 14 52 151 29 276 0 527 -68 590 -38
36 -53 37 -172 19z m-96 -253 c-3 -16 -10 -28 -15 -28 -11 0 -12 93 -2 104 11
11 24 -45 17 -76z"/>
<path d="M5076 3042 c-12 -19 -18 -112 -7 -112 6 0 14 12 17 28 10 42 23 53
46 41 27 -15 32 -6 11 19 -20 23 -59 37 -67 24z"/>
<path d="M4516 2842 c-3 -5 1 -15 9 -22 16 -14 20 -3 6 19 -5 8 -11 9 -15 3z"/>
<path d="M4541 2579 c-1 -170 -4 -209 -16 -219 -19 -16 -21 -104 -2 -98 24 8
35 93 35 263 0 94 -3 190 -7 215 -6 30 -9 -24 -10 -161z"/>
<path d="M3800 2583 c0 -24 4 -43 9 -43 5 0 11 -9 14 -20 5 -20 37 -29 37 -11
0 6 11 22 25 37 14 15 25 39 25 55 0 27 -1 27 -55 26 l-55 -2 0 -42z"/>
<path d="M5734 2215 c0 -66 1 -92 3 -57 2 34 2 88 0 120 -2 31 -3 3 -3 -63z"/>
<path d="M1013 2233 c9 -2 25 -2 35 0 9 3 1 5 -18 5 -19 0 -27 -2 -17 -5z"/>
<path d="M873 2223 c9 -2 23 -2 30 0 6 3 -1 5 -18 5 -16 0 -22 -2 -12 -5z"/>
<path d="M708 2141 c-45 -6 -46 -7 -32 -26 14 -19 16 -19 25 -2 13 23 35 22
52 -4 l15 -21 7 21 c3 12 11 21 16 21 17 0 27 -45 31 -136 4 -88 4 -89 29 -85
57 8 519 11 550 4 42 -11 48 -28 12 -40 l-28 -10 37 -7 c39 -7 62 -33 49 -54
-4 -7 -27 -16 -52 -20 l-44 -8 70 -7 c39 -3 80 -9 93 -13 19 -6 22 -3 22 24 0
16 -9 59 -20 95 -20 65 -19 97 5 97 7 0 15 18 18 43 3 23 9 59 13 81 7 36 6
38 -13 27 -11 -5 -58 -13 -104 -17 -114 -9 -144 -23 -53 -23 48 -1 75 -6 83
-15 23 -27 -16 -39 -172 -51 -144 -12 -147 -12 -67 -15 142 -4 205 -13 205
-30 0 -21 -51 -26 -343 -34 -227 -7 -253 -6 -258 9 -4 10 1 22 12 30 11 8 14
15 7 15 -7 0 -18 10 -24 22 -10 18 -8 24 11 40 12 10 39 19 59 19 35 1 35 2
-14 13 -56 13 -65 33 -25 53 22 11 16 13 -50 11 -41 -1 -96 -4 -122 -7z"/>
<path d="M620 2130 c0 -5 4 -10 9 -10 6 0 13 5 16 10 3 6 -1 10 -9 10 -9 0
-16 -4 -16 -10z"/>
<path d="M468 2122 c-14 -6 -15 -9 -2 -26 13 -18 15 -18 32 -3 21 19 43 22 58
7 6 -6 14 -3 22 10 12 19 10 20 -40 19 -29 0 -61 -3 -70 -7z"/>
<path d="M2685 2027 c-6 -43 -7 -80 -3 -83 12 -8 19 37 16 101 l-3 60 -10 -78z"/>
<path d="M5723 1960 c0 -30 2 -43 4 -27 2 15 2 39 0 55 -2 15 -4 2 -4 -28z"/>
<path d="M3830 1865 c-10 -12 -10 -15 4 -15 9 0 16 7 16 15 0 8 -2 15 -4 15
-2 0 -9 -7 -16 -15z"/>
<path d="M820 1834 c0 -16 -3 -39 -6 -52 -6 -22 -9 -23 -84 -22 -82 1 -116 -2
-127 -12 -9 -7 -20 -6 -37 5 -21 14 -26 14 -36 2 -14 -17 -105 -21 -115 -5 -5
8 -11 7 -20 0 -8 -6 -26 -10 -41 -8 -16 2 -29 -2 -31 -9 -6 -17 -14 -17 462 9
l410 23 -163 11 c-90 6 -167 15 -173 21 -14 14 9 31 57 42 l39 9 -36 1 c-20 1
-51 4 -68 7 -29 6 -31 5 -31 -22z"/>
<path d="M264 1745 c-10 -31 -9 -35 7 -35 20 0 22 9 11 48 -6 21 -8 20 -18
-13z"/>
<path d="M1258 1683 c28 -2 76 -2 105 0 28 2 5 3 -53 3 -58 0 -81 -1 -52 -3z"/>
<path d="M1003 1673 c37 -2 96 -2 130 0 34 2 4 3 -68 3 -71 0 -99 -1 -62 -3z"/>
<path d="M767 1663 c18 -2 50 -2 70 0 21 2 7 4 -32 4 -38 0 -55 -2 -38 -4z"/>
<path d="M1282 1623 c37 -2 100 -2 140 0 40 1 10 3 -67 3 -77 0 -110 -1 -73
-3z"/>
<path d="M665 1601 c-41 -4 -65 -9 -57 -14 19 -13 14 -25 -15 -35 -30 -11 139
-6 292 8 l80 7 -82 2 c-110 1 -121 19 -23 34 38 6 -115 4 -195 -2z"/>
<path d="M5645 1110 c-60 -4 -118 -8 -127 -9 -10 0 -18 -5 -18 -11 0 -6 36
-10 88 -10 105 -1 169 -14 200 -42 12 -12 22 -16 22 -10 0 24 -33 92 -44 90
-6 -1 -60 -5 -121 -8z"/>
<path d="M5170 1095 c-25 -14 -24 -14 18 -15 42 0 56 12 26 24 -19 7 -14 8
-44 -9z"/>
<path d="M5280 1090 c-10 -7 17 -10 85 -10 68 0 95 3 85 10 -8 5 -46 10 -85
10 -38 0 -77 -5 -85 -10z"/>
<path d="M5815 981 c3 -18 5 -90 5 -160 1 -103 3 -122 13 -106 18 30 14 200
-6 255 -15 39 -16 41 -12 11z"/>
<path d="M5295 951 c-8 -14 29 -31 68 -31 32 0 55 19 40 34 -10 10 -101 7
-108 -3z"/>
<path d="M5605 930 c3 -5 13 -10 21 -10 8 0 14 5 14 10 0 6 -9 10 -21 10 -11
0 -17 -4 -14 -10z"/>
<path d="M5437 807 c-4 -11 -22 -17 -54 -20 -26 -2 18 -4 99 -5 136 -2 177 5
146 24 -7 5 -51 10 -99 12 -71 4 -87 2 -92 -11z"/>
<path d="M5100 800 c0 -5 5 -10 11 -10 5 0 7 5 4 10 -3 6 -8 10 -11 10 -2 0
-4 -4 -4 -10z"/>
<path d="M5750 638 c-49 -14 -61 -28 -23 -28 17 0 42 -9 57 -21 l26 -20 0 40
c0 44 -3 46 -60 29z"/>
<path d="M5076 502 c-6 -9 -46 -171 -46 -185 0 -6 11 0 24 12 24 23 45 14 30
-11 -4 -7 2 -5 13 5 22 19 54 22 69 7 7 -7 16 -4 29 10 23 26 35 25 35 -1 l0
-20 29 20 c21 15 28 27 24 41 -5 19 -7 19 -23 5 -23 -21 -39 -19 -50 8 -5 12
-9 17 -9 10 -1 -7 -10 -17 -20 -23 -15 -7 -23 -6 -36 6 -12 13 -19 13 -30 4
-26 -22 -36 -1 -29 61 6 54 3 71 -10 51z"/>
<path d="M5140 481 c-5 -11 -10 -32 -10 -48 1 -24 2 -25 11 -10 11 19 39 23
55 7 7 -7 18 0 33 21 27 36 17 58 -18 40 -15 -8 -27 -9 -41 -1 -15 8 -21 6
-30 -9z"/>
<path d="M4941 444 c0 -11 3 -14 6 -6 3 7 2 16 -1 19 -3 4 -6 -2 -5 -13z"/>
<path d="M4919 365 c-9 -30 -13 -52 -9 -50 9 5 34 94 29 100 -2 2 -11 -21 -20
-50z"/>
</g>
</svg>
