<?xml version="1.0" standalone="no"?>
<!DOCTYPE svg PUBLIC "-//W3C//DTD SVG 20010904//EN"
 "http://www.w3.org/TR/2001/REC-SVG-20010904/DTD/svg10.dtd">
<svg version="1.0" xmlns="http://www.w3.org/2000/svg"
 width="275.000000pt" height="183.000000pt" viewBox="0 0 275.000000 183.000000"
 preserveAspectRatio="xMidYMid meet">

<g transform="translate(0.000000,183.000000) scale(0.100000,-0.100000)"
fill="#000000" stroke="none">
<path d="M0 1720 c0 -105 1 -110 19 -101 24 13 29 43 23 136 -4 65 -7 75 -23
75 -17 0 -19 -9 -19 -110z"/>
<path d="M2597 1810 c3 -11 1 -20 -4 -20 -6 0 -20 -9 -33 -20 -13 -11 -30 -20
-37 -20 -35 0 -113 -84 -105 -112 1 -5 -4 -8 -11 -8 -30 0 -78 -82 -56 -96 16
-10 64 21 64 41 0 12 9 22 25 26 39 11 120 10 120 -1 0 -5 7 -10 15 -10 8 0
16 -6 16 -12 1 -7 2 -17 4 -23 1 -5 3 -14 3 -19 1 -6 15 3 31 18 32 31 61 30
61 -3 0 -25 11 -32 38 -24 21 5 22 10 22 154 l0 149 -79 0 c-74 0 -79 -1 -74
-20z"/>
<path d="M2145 1810 c3 -5 11 -10 16 -10 6 0 7 5 4 10 -3 6 -11 10 -16 10 -6
0 -7 -4 -4 -10z"/>
<path d="M20 1579 c0 -5 5 -7 10 -4 6 3 10 8 10 11 0 2 -4 4 -10 4 -5 0 -10
-5 -10 -11z"/>
<path d="M37 1519 c-9 -5 -22 -7 -27 -4 -6 4 -10 -8 -10 -28 0 -34 0 -34 52
-39 47 -5 88 6 88 23 0 3 -9 18 -21 33 -21 27 -51 33 -82 15z"/>
<path d="M1398 1503 c7 -3 16 -2 19 1 4 3 -2 6 -13 5 -11 0 -14 -3 -6 -6z"/>
<path d="M1358 1493 c7 -3 16 -2 19 1 4 3 -2 6 -13 5 -11 0 -14 -3 -6 -6z"/>
<path d="M1440 1470 c6 -11 12 -20 14 -20 2 0 2 9 -1 20 -3 11 -9 20 -15 20
-5 0 -4 -9 2 -20z"/>
<path d="M1460 1412 c0 -7 11 -28 25 -46 14 -18 25 -40 25 -49 0 -8 6 -22 14
-30 8 -7 30 -38 49 -68 19 -30 58 -76 86 -104 37 -36 51 -57 51 -77 0 -33 15
-37 23 -7 4 14 -5 33 -31 62 -63 73 -69 82 -52 73 8 -4 4 2 -10 14 -14 12 -18
18 -10 14 8 -4 2 5 -13 19 -17 16 -25 32 -21 40 4 6 4 9 -1 5 -11 -10 -38 29
-30 42 3 6 -1 10 -10 10 -10 0 -13 5 -9 12 4 7 3 8 -4 4 -7 -4 -26 15 -47 46
-19 29 -35 47 -35 40z"/>
<path d="M2613 1410 c-53 -8 -62 -16 -37 -34 19 -15 19 -15 -1 -30 -24 -19
-72 -21 -78 -3 -2 6 -8 8 -13 4 -5 -4 -2 -12 5 -16 8 -5 10 -14 6 -21 -6 -10
-9 -10 -15 0 -6 9 -12 10 -26 1 -18 -10 -18 -11 4 -17 12 -3 22 -10 22 -15 0
-5 12 -4 26 1 38 15 54 12 54 -8 0 -28 -60 -45 -130 -37 -38 4 -60 3 -64 -4
-4 -7 1 -11 13 -11 12 0 21 -4 21 -10 0 -5 -6 -10 -12 -10 -10 0 -10 -2 -1 -8
8 -5 -8 -18 -47 -36 -33 -15 -58 -31 -55 -37 4 -5 1 -9 -4 -9 -6 0 -11 -10
-11 -23 0 -28 -52 -70 -74 -61 -9 3 -16 15 -16 25 0 14 7 19 30 19 17 0 30 2
30 5 0 12 -60 63 -65 55 -3 -4 -13 -6 -23 -3 -10 2 -29 -7 -45 -21 -21 -19
-39 -26 -70 -26 l-42 -1 40 -20 c22 -12 46 -28 53 -37 10 -14 16 -14 32 -4 11
6 28 12 38 12 16 0 19 -7 16 -50 -1 -31 2 -50 9 -50 5 0 8 3 4 6 -3 3 0 12 6
19 13 14 46 -2 80 -40 11 -11 26 -19 34 -17 22 5 42 -16 36 -38 -4 -14 0 -20
11 -20 9 0 16 -5 16 -11 0 -8 4 -8 14 0 8 7 16 8 18 4 3 -4 3 -2 1 5 -5 22 16
52 32 46 19 -8 19 -24 0 -24 -8 0 -15 -4 -15 -10 0 -5 5 -10 11 -10 6 0 9 -7
5 -15 -8 -22 11 -65 29 -65 26 0 17 -35 -12 -48 -26 -11 -25 -11 14 -7 23 3
45 1 48 -5 10 -16 45 -12 45 5 0 21 27 30 44 16 16 -13 29 -1 18 15 -11 17
-62 24 -62 8 0 -8 -6 -11 -16 -7 -10 4 -14 16 -12 36 2 24 9 32 31 38 22 6 27
4 27 -11 0 -22 22 -39 28 -22 6 19 102 16 102 -3 0 -8 7 -15 15 -15 13 0 15
26 15 170 l0 171 -27 -3 c-15 -2 -28 2 -29 7 0 6 -4 18 -9 28 -4 11 -3 23 4
30 13 13 27 1 33 -27 1 -11 9 -21 16 -24 9 -3 12 29 12 137 0 78 -3 141 -7
142 -35 4 -69 12 -78 18 -5 4 -29 4 -52 1z m87 -61 c0 -27 -27 -23 -32 5 -4
19 -1 22 14 18 10 -2 18 -13 18 -23z m-11 -278 c12 -8 11 -15 -6 -43 -24 -42
-58 -49 -65 -14 -9 47 33 81 71 57z m-358 -54 c-6 -6 -11 -16 -11 -21 0 -6 5
-4 10 4 10 16 88 19 99 3 3 -5 14 -12 23 -16 20 -7 14 -37 -8 -37 -8 0 -14 -4
-14 -10 0 -15 -26 -12 -40 5 -7 8 -16 13 -20 10 -15 -9 -73 52 -67 69 4 9 13
13 22 10 12 -5 13 -10 6 -17z m242 -61 c24 -18 22 -23 -15 -32 -18 -3 -39 -15
-46 -25 -14 -20 -52 -26 -52 -9 0 6 9 18 20 27 11 10 20 23 20 30 0 6 10 14
23 16 12 2 24 5 27 5 3 1 13 -5 23 -12z m-13 -76 c0 -5 -5 -10 -11 -10 -5 0
-7 5 -4 10 3 6 8 10 11 10 2 0 4 -4 4 -10z m-40 -21 c0 -5 5 -7 10 -4 6 3 10
1 10 -4 0 -6 -5 -11 -10 -11 -6 0 -16 -12 -22 -27 l-12 -28 -6 40 c-4 22 -8
34 -9 27 0 -7 -5 -10 -11 -7 -20 12 -9 25 20 25 17 0 30 -5 30 -11z"/>
<path d="M2515 1390 c3 -5 13 -10 21 -10 8 0 12 5 9 10 -3 6 -13 10 -21 10 -8
0 -12 -4 -9 -10z"/>
<path d="M1323 1347 c-18 -40 -17 -78 2 -71 20 8 20 -39 0 -143 -8 -43 -15
-90 -15 -105 0 -21 -4 -26 -18 -23 -10 2 -25 -1 -33 -6 -12 -7 -12 -9 1 -10 8
-1 20 -1 27 0 9 1 9 -7 2 -31 -5 -18 -9 -42 -8 -53 0 -18 1 -18 9 3 5 12 14
22 19 22 13 0 25 36 28 90 5 83 8 100 16 100 4 0 7 6 5 13 -4 22 26 118 33
105 4 -7 5 -24 2 -39 -3 -16 2 -40 13 -60 17 -31 19 -32 22 -11 2 12 7 22 12
22 9 0 97 -93 186 -196 60 -69 60 -71 73 -160 34 -248 44 -294 63 -294 6 0 3
-9 -6 -19 -17 -19 -17 -19 2 -14 16 4 20 -1 24 -26 3 -19 0 -32 -9 -35 -8 -3
-13 2 -13 14 0 10 -4 21 -8 24 -4 2 -6 -10 -4 -28 3 -24 -1 -35 -12 -39 -9 -4
-15 -3 -15 1 1 4 1 14 0 22 -1 11 -4 11 -13 2 -16 -16 -78 -16 -78 1 0 6 -5 4
-11 -6 -16 -28 -1 -36 74 -38 37 -1 67 -4 67 -6 0 -1 -8 -11 -18 -21 -12 -12
-37 -18 -82 -19 -36 -2 -87 -9 -115 -15 -45 -12 -50 -16 -53 -43 -2 -20 3 -34
15 -41 16 -10 18 -7 18 24 0 23 5 37 15 39 9 3 11 1 5 -4 -11 -9 -16 -43 -6
-41 19 2 22 -4 10 -19 -11 -15 -11 -16 1 -5 8 6 23 12 33 12 16 0 17 -3 7 -15
-7 -9 -8 -15 -2 -15 5 0 13 7 16 16 4 12 15 15 36 12 20 -3 30 0 30 9 0 7 -5
13 -11 13 -7 0 0 9 14 20 26 21 57 27 57 11 0 -6 -9 -8 -20 -6 -18 4 -22 -3
-19 -32 0 -5 7 -7 15 -5 23 5 16 -8 -11 -18 -14 -5 -25 -16 -25 -24 0 -9 -6
-13 -14 -10 -8 3 -12 12 -9 20 3 8 1 14 -4 14 -18 0 -22 -12 -12 -31 9 -17 7
-18 -16 -9 -19 7 -25 6 -25 -4 0 -17 -28 -15 -39 3 -12 18 -121 -4 -121 -25 0
-8 -6 -14 -12 -15 -7 0 -5 -4 6 -8 17 -7 16 -8 -7 -24 -16 -11 -24 -23 -21
-32 5 -11 -1 -15 -23 -15 -40 0 -45 -8 -23 -33 11 -11 23 -17 27 -14 3 4 1 7
-5 7 -23 0 -12 18 19 30 22 10 33 10 42 1 8 -8 5 -11 -14 -12 -13 0 -18 -3
-11 -6 20 -8 72 18 72 36 0 9 -3 12 -8 6 -12 -17 -39 -16 -46 0 -3 9 -2 13 3
10 5 -3 12 -1 16 5 3 5 13 10 21 10 8 0 28 13 46 30 17 16 35 30 39 30 14 0
10 -28 -3 -33 -10 -4 -10 -6 0 -6 10 -1 10 -6 2 -21 -19 -35 8 -54 35 -26 12
12 12 15 -3 21 -14 5 -11 10 17 24 26 14 30 19 17 24 -9 4 -16 11 -16 17 0 6
7 6 20 -2 15 -10 22 -10 32 0 14 14 38 16 38 2 0 -5 -11 -12 -24 -16 -17 -4
-22 -11 -19 -25 3 -10 13 -19 23 -19 10 0 26 -3 35 -6 13 -5 14 -9 3 -15 -9
-6 -6 -8 9 -6 18 1 22 6 19 24 -3 12 1 24 7 26 7 2 12 12 12 22 0 10 6 20 13
22 6 3 12 0 12 -7 0 -6 -5 -8 -10 -5 -7 4 -9 -2 -4 -19 4 -16 2 -26 -5 -26 -6
0 -11 -5 -11 -11 0 -6 8 -8 18 -5 22 7 47 -8 38 -23 -11 -17 -39 -14 -33 3 4
10 1 13 -9 9 -26 -10 3 -28 47 -29 38 0 64 -18 53 -36 -3 -4 2 -8 12 -8 13 0
14 3 4 15 -6 8 -8 20 -4 26 4 7 3 10 -2 6 -12 -7 -48 14 -52 31 -1 8 1 11 6 8
5 -3 32 2 60 11 45 15 49 18 34 29 -9 8 -24 13 -32 14 -13 0 -13 -1 0 -10 13
-8 12 -10 -2 -10 -10 0 -18 -4 -18 -10 0 -5 -8 -10 -17 -10 -13 0 -11 6 11 29
33 34 72 47 92 30 10 -8 22 -6 50 11 30 19 38 20 45 9 13 -21 11 -25 -11 -26
-11 -1 -18 2 -15 8 4 5 1 9 -4 9 -6 0 -11 -4 -11 -10 0 -5 -7 -10 -15 -10 -8
0 -15 -5 -15 -10 0 -7 -6 -7 -19 0 -15 7 -22 7 -27 -2 -4 -7 -4 -10 1 -6 9 9
45 -9 45 -22 0 -6 -5 -9 -11 -7 -6 1 -14 -4 -16 -10 -6 -18 12 -16 27 2 7 8
16 12 21 9 5 -3 9 -2 8 3 -5 26 3 35 26 31 14 -3 25 -2 25 3 0 4 9 11 20 14
11 3 20 13 20 21 0 17 -17 19 -23 1 -2 -6 -8 -8 -13 -4 -5 4 -2 12 6 17 16 10
8 14 -22 11 -11 -2 -18 5 -18 14 0 9 -4 14 -10 10 -5 -3 -6 -13 -3 -22 4 -11
3 -14 -5 -9 -7 4 -19 0 -28 -9 -9 -9 -18 -14 -20 -12 -8 7 8 37 16 32 8 -5 26
12 32 30 1 6 7 9 12 7 4 -1 14 2 22 9 7 6 19 7 25 3 9 -5 10 -2 6 10 -4 11 -3
15 4 10 7 -4 9 -21 6 -40 -3 -19 -2 -34 4 -34 5 0 9 3 10 8 4 42 3 64 -3 68
-5 3 -6 10 -2 15 4 6 11 6 20 -2 7 -6 22 -8 31 -5 15 6 15 8 3 17 -13 9 -13
10 -1 7 25 -7 22 -23 -6 -41 -25 -16 -25 -18 -5 -14 12 3 20 1 16 -4 -3 -5
-15 -9 -27 -9 -20 -1 -20 -2 -4 -11 19 -11 23 -29 6 -29 -5 0 -7 5 -4 10 3 6
1 10 -4 10 -14 0 -14 -17 0 -26 7 -4 20 4 31 17 11 13 16 18 12 10 -5 -9 -3
-12 5 -7 6 4 9 12 5 17 -7 11 14 79 25 79 4 0 6 -15 4 -32 l-4 -33 15 32 c8
18 20 33 26 33 6 0 4 -10 -5 -23 -15 -23 -15 -24 20 -25 46 -2 63 -12 41 -24
-9 -5 -20 -7 -25 -4 -5 3 -11 -1 -15 -9 -6 -17 -26 -20 -26 -4 0 5 5 7 10 4 6
-3 10 4 9 17 0 13 -3 17 -6 11 -2 -7 -13 -13 -23 -13 -10 0 -20 -7 -23 -14 -4
-11 -1 -13 10 -9 11 4 14 2 9 -5 -4 -8 0 -12 11 -13 17 0 17 -1 0 -8 -17 -6
-16 -8 8 -19 14 -7 37 -12 51 -12 24 0 24 1 9 17 -16 16 -15 18 15 43 l32 26
-27 12 c-15 7 -26 15 -23 17 10 10 58 -21 58 -37 0 -10 5 -18 11 -18 6 0 9 -6
6 -14 -8 -20 24 -26 43 -10 14 12 15 9 12 -22 -3 -25 -7 -32 -13 -23 -7 11 -9
11 -9 1 0 -7 -5 -10 -12 -6 -7 4 -8 3 -4 -5 4 -6 11 -9 15 -7 4 3 13 0 21 -5
11 -7 4 -9 -23 -6 -34 4 -58 -5 -40 -16 5 -2 2 -2 -6 0 -9 2 -11 -2 -7 -13 5
-12 2 -15 -9 -10 -9 3 -13 2 -10 -3 3 -5 -5 -17 -17 -25 -21 -15 -21 -16 -3
-17 17 0 17 -2 -4 -10 -32 -13 -51 5 -24 22 13 8 19 19 15 32 -3 11 -1 18 4
15 5 -3 15 0 22 8 10 11 1 13 -57 11 -38 -1 -64 -5 -58 -9 7 -4 20 -8 30 -8 9
0 17 -4 17 -10 0 -5 -6 -7 -14 -4 -8 3 -16 -3 -19 -15 -4 -16 0 -21 16 -22 20
-1 20 -2 -3 -9 -23 -7 -12 -14 16 -11 6 1 17 -6 24 -14 12 -15 45 -22 37 -7
-3 4 6 8 19 8 13 1 21 -2 18 -7 -8 -14 40 -11 54 3 7 7 12 8 12 2 0 -12 23
-15 63 -7 15 2 25 9 21 14 -3 5 -10 7 -15 4 -5 -3 -6 1 -3 9 7 19 34 22 34 4
0 -6 3 -8 6 -5 4 4 1 14 -7 23 -11 14 -10 16 6 14 40 -4 47 -1 40 23 -4 15 -3
18 3 8 7 -10 11 -10 14 -1 3 10 9 10 28 1 24 -12 24 -12 5 5 -20 16 -20 16 0
12 15 -4 21 0 22 14 2 16 -1 17 -13 8 -8 -7 -14 -9 -14 -5 0 4 -8 1 -17 -6
-15 -13 -16 -12 -11 9 4 12 2 22 -3 22 -5 0 -9 -7 -9 -15 0 -8 -5 -15 -11 -15
-10 0 -5 13 14 38 8 10 12 9 22 -5 8 -11 18 -14 31 -8 10 4 22 7 27 7 4 -1 7
3 7 9 0 5 4 8 9 4 5 -3 12 -1 15 4 4 5 -2 12 -11 14 -11 3 -7 5 11 6 22 1 27
5 22 17 -4 12 -2 15 9 11 8 -4 17 -1 21 5 4 7 3 8 -4 4 -7 -4 -12 -3 -12 3 0
5 6 11 13 14 9 3 9 7 -1 19 -10 13 -9 17 10 23 19 6 20 8 6 12 -22 6 -23 19
-3 27 18 7 20 32 3 40 -10 5 -10 7 0 12 16 8 15 24 -2 24 -7 0 -21 -11 -30
-25 -9 -14 -24 -25 -34 -25 -13 1 -12 3 6 13 12 7 19 16 15 20 -3 4 8 13 25
19 23 9 32 19 32 35 0 12 -4 24 -9 27 -11 7 -34 -20 -27 -32 3 -5 -7 -8 -23
-7 -27 2 -29 0 -24 -27 3 -20 1 -28 -6 -23 -6 3 -15 4 -21 0 -13 -8 -1 -33 18
-38 10 -3 3 -5 -15 -6 -17 0 -35 4 -38 9 -3 6 -2 10 4 10 6 0 8 7 5 15 -4 9 0
15 10 15 9 0 16 7 16 15 0 20 -5 19 -35 -9 -15 -14 -24 -29 -21 -34 3 -5 -10
-9 -29 -9 -20 0 -36 6 -39 14 -4 9 -14 11 -30 7 -17 -4 -35 1 -56 16 -17 12
-37 19 -45 16 -8 -3 -15 -1 -15 4 0 6 -7 10 -15 10 -8 0 -15 -5 -15 -11 0 -5
5 -7 10 -4 12 7 13 -5 2 -20 -9 -13 -42 -16 -42 -4 0 5 6 9 13 10 6 0 2 4 -11
9 -13 6 -32 6 -46 0 -13 -5 -27 -6 -30 -3 -3 4 -6 2 -6 -3 0 -5 -27 -7 -60 -6
l-59 4 3 31 c2 18 0 35 -5 38 -8 5 -22 160 -19 214 1 11 1 27 0 35 0 8 0 23
-1 33 0 13 -6 16 -27 12 -15 -3 -21 -2 -14 1 6 3 12 14 12 24 0 10 5 22 12 26
8 5 9 2 5 -9 -3 -9 -1 -19 6 -23 7 -4 9 -4 6 0 -8 9 37 56 54 57 7 0 -1 5 -16
9 -31 9 -66 8 -85 -4 -16 -10 -15 -43 1 -49 23 -8 -1 -18 -59 -23 -33 -3 -62
-10 -65 -16 -3 -5 -10 -9 -15 -8 -5 0 -11 -7 -12 -17 -2 -10 -8 -22 -13 -27
-5 -6 -9 -46 -9 -90 0 -45 -4 -76 -9 -71 -14 16 -31 148 -21 160 6 8 3 45 -11
106 -11 52 -18 107 -16 124 2 17 -2 35 -9 43 -8 7 -14 22 -14 33 0 10 -6 19
-14 19 -8 0 -17 8 -19 18 -4 14 -5 14 -6 1 0 -9 8 -26 19 -39 22 -25 26 -40
10 -40 -5 0 -10 -12 -10 -27 0 -21 3 -24 9 -14 11 17 11 17 36 -108 9 -41 14
-76 12 -78 -2 -1 -11 25 -21 58 -16 60 -59 133 -101 174 -40 39 -182 210 -200
242 -24 41 -14 52 21 24 15 -12 30 -19 33 -16 3 4 -1 10 -9 15 -8 5 -15 14
-15 19 0 16 -39 47 -67 54 -26 7 -27 5 -33 -48 -4 -30 -10 -55 -14 -55 -3 0
-15 25 -27 55 -12 30 -17 52 -13 49 12 -7 11 3 -2 27 -8 16 -14 18 -24 9 -11
-9 -14 -6 -17 12 -3 22 -3 21 -15 -5z m412 -562 c20 -60 45 -215 34 -215 -9 0
-29 91 -23 102 3 4 -1 20 -9 35 -8 15 -17 47 -21 70 -3 23 -9 50 -12 60 -5 12
-4 15 4 8 5 -5 18 -32 27 -60z m325 -60 c0 -8 -8 -19 -17 -25 -17 -11 -17 -11
0 -6 9 3 17 4 17 2 0 -3 3 -12 6 -21 5 -13 2 -15 -20 -9 -22 5 -26 3 -26 -14
0 -30 -17 -36 -24 -9 -4 14 0 26 11 34 14 11 13 14 -11 24 -44 20 -32 34 31
36 21 1 33 -4 33 -12z m-120 -68 c0 -15 10 -26 30 -36 17 -7 29 -18 27 -25 -9
-23 14 -46 46 -47 23 -1 17 -4 -22 -10 -30 -5 -56 -7 -59 -5 -2 3 -15 -7 -28
-22 -19 -22 -23 -24 -24 -9 0 9 5 17 12 17 6 0 9 2 7 5 -10 10 -49 -8 -49 -23
0 -13 -2 -14 -12 -3 -11 11 -10 14 0 18 21 8 42 59 42 102 0 46 9 73 21 65 5
-3 9 -15 9 -27z m-40 -34 c0 -19 -3 -24 -10 -17 -6 6 -8 18 -4 27 9 24 14 21
14 -10z m-121 -85 c0 -13 -3 -17 -6 -10 -2 6 -9 10 -14 6 -10 -6 -12 9 -2 19
13 14 23 7 22 -15z m104 -78 c-3 -12 -8 -19 -11 -16 -5 6 5 36 12 36 2 0 2 -9
-1 -20z m72 -31 l30 -1 -30 -7 c-28 -6 -29 -7 -7 -13 13 -4 28 -1 34 6 6 7 25
10 41 8 21 -3 28 -1 23 7 -5 7 1 11 16 11 17 0 19 -3 9 -9 -9 -6 -10 -11 -2
-15 16 -10 14 -26 -4 -26 -8 0 -15 6 -15 13 0 9 -2 9 -8 0 -4 -7 -37 -14 -75
-16 -59 -3 -67 -1 -67 15 0 10 -5 18 -11 18 -8 0 -7 5 1 15 9 11 16 13 24 5 5
-5 24 -11 41 -11z m450 -47 c-3 -3 0 -11 6 -19 9 -9 8 -13 0 -13 -6 0 -11 4
-11 10 0 5 -7 7 -15 4 -8 -4 -15 -2 -15 3 0 14 8 20 25 20 8 0 13 -3 10 -5z
m-129 -38 c-9 -8 -16 -11 -16 -4 0 15 24 40 28 29 2 -5 -4 -16 -12 -25z m-122
20 c20 -7 21 -20 3 -27 -19 -7 -41 8 -33 22 8 13 9 13 30 5z m67 -9 c5 4 6 -1
3 -9 -8 -20 -24 -11 -23 12 0 11 2 12 6 4 2 -6 9 -10 14 -7z m499 6 c0 -5 -7
-14 -15 -21 -12 -10 -15 -10 -15 2 0 8 3 18 7 21 9 10 23 9 23 -2z m-610 -11
c0 -5 -18 -10 -40 -10 -22 0 -40 5 -40 10 0 6 18 10 40 10 22 0 40 -4 40 -10z
m236 -7 c12 -18 16 -19 51 -22 15 -1 10 -16 -5 -16 -4 0 -13 -4 -19 -8 -9 -5
-13 -3 -13 7 0 9 -9 21 -20 28 -11 7 -20 16 -20 20 0 13 12 9 26 -9z m59 -11
c-3 -3 -11 0 -18 7 -9 10 -8 11 6 5 10 -3 15 -9 12 -12z m-575 -11 c0 -9 -67
-7 -76 2 -5 5 -1 5 9 1 9 -3 17 -2 17 4 0 5 11 7 25 4 14 -2 25 -7 25 -11z
m35 9 c3 -5 2 -10 -4 -10 -5 0 -13 5 -16 10 -3 6 -2 10 4 10 5 0 13 -4 16 -10z
m45 6 c0 -2 -3 -11 -6 -20 -9 -23 -23 -20 -21 4 1 11 7 20 14 20 7 0 13 -2 13
-4z m590 -6 c0 -5 -5 -10 -11 -10 -5 0 -7 5 -4 10 3 6 8 10 11 10 2 0 4 -4 4
-10z m55 0 c-3 -5 -2 -10 4 -10 5 0 13 5 16 10 9 15 22 12 22 -5 0 -8 -4 -12
-9 -9 -5 3 -15 1 -23 -6 -9 -7 -15 -8 -20 0 -6 10 1 30 11 30 3 0 2 -4 -1 -10z
m-455 -10 c0 -5 -8 -10 -17 -10 -15 0 -16 2 -3 10 19 12 20 12 20 0z m40 3 c0
-5 -5 -15 -10 -23 -8 -12 -10 -11 -10 8 0 12 5 22 10 22 6 0 10 -3 10 -7z m40
-9 c0 -14 -3 -14 -15 -4 -8 7 -15 14 -15 16 0 2 7 4 15 4 8 0 15 -7 15 -16z
m-235 -12 c-3 -3 -11 0 -18 7 -9 10 -8 11 6 5 10 -3 15 -9 12 -12z m350 8 c3
-6 -1 -7 -9 -4 -18 7 -21 14 -7 14 6 0 13 -4 16 -10z m48 -4 c4 -10 1 -13 -9
-9 -15 6 -19 23 -5 23 5 0 11 -7 14 -14z m-473 -6 c0 -5 -7 -10 -16 -10 -8 0
-12 5 -9 10 3 6 10 10 16 10 5 0 9 -4 9 -10z m660 6 c0 -2 -7 -6 -15 -10 -8
-3 -15 -1 -15 4 0 6 7 10 15 10 8 0 15 -2 15 -4z m-460 -10 c0 -3 -4 -8 -10
-11 -5 -3 -10 -1 -10 4 0 6 5 11 10 11 6 0 10 -2 10 -4z m590 -11 c0 -8 6 -12
14 -9 8 3 23 1 33 -6 15 -10 14 -10 -9 -6 -15 4 -30 2 -33 -4 -3 -5 -12 -10
-18 -10 -8 0 -8 3 1 9 11 7 11 9 -1 14 -8 3 -18 3 -21 0 -12 -12 -6 -32 12
-36 12 -3 10 -6 -11 -12 -19 -5 -33 -3 -40 4 -9 9 -8 11 6 6 13 -6 17 -2 17
14 0 25 -13 27 -36 4 -9 -10 -34 -18 -58 -19 -43 -2 -30 8 27 20 15 4 27 13
27 20 0 18 15 24 58 25 22 1 32 -4 32 -14z m-870 -5 c0 -5 -7 -7 -15 -4 -8 4
-15 8 -15 10 0 2 7 4 15 4 8 0 15 -4 15 -10z m141 -11 c17 -17 18 -23 9 -32
-10 -9 -11 -9 -6 1 10 17 -4 15 -27 -5 -14 -13 -18 -13 -12 -3 14 24 13 51 -2
46 -7 -3 -13 -1 -13 4 0 17 29 11 51 -11z m69 10 c0 -11 -27 -12 -34 -1 -2 4
4 9 15 9 10 1 19 -2 19 -8z m424 -4 c3 -9 0 -15 -10 -15 -8 0 -13 4 -9 9 3 5
-3 12 -12 14 -14 4 -14 5 3 6 12 0 24 -6 28 -14z m60 7 c2 -4 -6 -7 -20 -7
-32 2 -39 10 -9 13 13 1 26 -2 29 -6z m-897 -23 c-9 -6 -15 -14 -12 -20 4 -5
2 -9 -3 -9 -18 0 -21 29 -4 33 30 8 37 7 19 -4z m803 -10 c0 -15 5 -19 15 -15
19 7 19 -1 1 -20 -19 -18 -30 -18 -22 1 3 9 0 15 -9 15 -8 0 -15 5 -15 11 0 5
5 7 12 3 8 -5 9 -2 5 9 -3 10 -2 17 3 17 6 0 10 -9 10 -21z m90 1 c-8 -5 -9
-16 -5 -31 7 -21 6 -22 -9 -7 -18 19 -21 38 -5 38 5 0 7 4 4 10 -3 6 1 7 10 3
12 -4 13 -8 5 -13z m-603 4 c-3 -3 -12 -4 -19 -1 -8 3 -5 6 6 6 11 1 17 -2 13
-5z m-98 -18 c-2 -2 -15 -9 -29 -16 -23 -12 -24 -12 -11 3 7 10 20 17 29 17 8
0 13 -2 11 -4z m101 -6 c0 -5 -4 -10 -9 -10 -5 0 -17 -3 -27 -7 -16 -6 -17 -5
-4 10 17 18 40 22 40 7z m105 0 c3 -5 1 -10 -4 -10 -6 0 -11 5 -11 10 0 6 2
10 4 10 3 0 8 -4 11 -10z m588 -23 c3 -8 -5 -14 -21 -15 -14 -1 -29 -8 -34
-15 -5 -9 -8 -9 -8 0 0 16 28 43 45 43 7 0 15 -6 18 -13z m37 -7 c0 -5 -4 -10
-10 -10 -5 0 -10 5 -10 10 0 6 5 10 10 10 6 0 10 -4 10 -10z m-908 -14 c7 4 8
2 4 -4 -11 -18 -26 -14 -25 6 0 10 3 12 6 4 2 -6 10 -9 15 -6z m108 -6 c-6
-10 -5 -22 0 -28 7 -9 7 -9 -2 -2 -16 13 -17 47 -2 47 9 0 10 -6 4 -17z m631
-3 c-10 -9 -11 -8 -5 6 3 10 9 15 12 12 3 -3 0 -11 -7 -18z m42 -1 c7 2 12 -5
12 -20 0 -13 -2 -22 -4 -20 -3 2 -14 -5 -25 -15 -12 -11 -28 -21 -36 -23 -8
-2 -19 -7 -23 -13 -5 -6 -7 -4 -4 5 2 8 8 15 13 15 15 1 54 25 54 34 0 5 -10
7 -22 5 -21 -4 -21 -4 -3 5 11 4 25 6 30 3 6 -3 4 1 -2 9 -7 7 -13 18 -12 24
0 5 3 5 5 -2 3 -7 11 -10 17 -7z m42 -26 c3 -5 2 -10 -4 -10 -5 0 -13 5 -16
10 -3 6 -2 10 4 10 5 0 13 -4 16 -10z m-1035 -4 c0 -3 -4 -8 -10 -11 -5 -3
-10 -1 -10 4 0 6 5 11 10 11 6 0 10 -2 10 -4z m105 -16 c3 -5 2 -10 -4 -10 -5
0 -13 5 -16 10 -3 6 -2 10 4 10 5 0 13 -4 16 -10z m405 0 c0 -5 -5 -10 -11
-10 -5 0 -7 5 -4 10 3 6 8 10 11 10 2 0 4 -4 4 -10z m-267 -7 c-7 -2 -21 -2
-30 0 -10 3 -4 5 12 5 17 0 24 -2 18 -5z m-263 -13 c0 -5 -4 -10 -10 -10 -5 0
-10 5 -10 10 0 6 5 10 10 10 6 0 10 -4 10 -10z m1001 -51 c-11 -10 -21 -23
-22 -31 -1 -7 -4 -2 -9 12 -7 26 14 55 31 44 5 -3 10 3 10 13 1 16 2 16 6 -2
3 -12 -3 -25 -16 -36z m69 37 c0 -2 -9 -6 -20 -9 -11 -3 -20 -1 -20 4 0 5 9 9
20 9 11 0 20 -2 20 -4z m-965 -26 c-3 -5 -11 -10 -16 -10 -6 0 -7 5 -4 10 3 6
11 10 16 10 6 0 7 -4 4 -10z m789 -2 c-5 -8 -2 -9 10 -5 10 4 15 3 11 -3 -3
-6 0 -10 7 -10 9 0 9 -3 -2 -10 -8 -5 -26 -10 -40 -10 -20 0 -22 2 -10 10 12
8 12 10 -5 10 -18 1 -17 2 5 15 31 18 33 18 24 3z"/>
<path d="M1275 1290 c-3 -5 -1 -18 5 -27 11 -17 11 -16 5 1 -3 11 0 23 7 28 9
5 10 8 1 8 -6 0 -15 -4 -18 -10z"/>
<path d="M2190 1204 c0 -12 19 -19 43 -15 4 0 7 -3 7 -9 0 -5 5 -10 11 -10 6
0 9 8 7 17 -4 22 -68 37 -68 17z"/>
<path d="M1703 1114 c14 -15 31 -24 38 -21 10 4 9 6 -3 6 -9 1 -20 10 -23 21
-3 11 -13 20 -21 20 -11 0 -8 -7 9 -26z"/>
<path d="M1411 1084 c0 -11 3 -14 6 -6 3 7 2 16 -1 19 -3 4 -6 -2 -5 -13z"/>
<path d="M1357 1043 c-11 -17 13 -28 26 -13 9 10 9 11 0 6 -6 -3 -13 -1 -15 6
-3 9 -6 9 -11 1z"/>
<path d="M1374 985 c-4 -14 -4 -29 0 -32 3 -4 6 4 6 16 0 12 4 19 10 16 6 -3
7 1 4 9 -8 22 -13 20 -20 -9z"/>
<path d="M1351 924 c0 -11 3 -14 6 -6 3 7 2 16 -1 19 -3 4 -6 -2 -5 -13z"/>
<path d="M2158 892 c-5 -17 -2 -17 18 -8 29 13 31 26 5 26 -10 0 -21 -8 -23
-18z"/>
<path d="M1388 818 c-14 -5 -28 -18 -31 -28 -5 -20 -27 -28 -27 -11 0 5 -9 7
-20 4 -11 -3 -20 -13 -19 -22 0 -11 2 -12 6 -3 6 17 43 -24 42 -47 0 -12 -2
-12 -6 -3 -3 9 -12 3 -24 -18 -11 -17 -24 -28 -29 -25 -6 3 -10 0 -10 -8 0
-11 -11 -15 -40 -13 -22 0 -40 -3 -40 -8 0 -6 -5 -5 -12 2 -18 18 -30 14 -23
-7 3 -11 1 -22 -5 -26 -16 -10 -12 -47 12 -92 29 -55 48 -56 48 -3 0 22 4 40
9 40 4 0 6 -12 4 -27 l-4 -28 15 30 c10 20 15 24 15 13 1 -13 9 -18 27 -18 22
0 25 2 14 15 -7 8 -10 15 -6 15 4 0 0 13 -9 30 -18 34 -18 40 -5 40 6 0 20
-19 30 -42 19 -43 23 -39 22 22 l-1 25 8 -25 c9 -24 12 -24 15 3 0 6 11 16 24
22 12 5 22 13 22 17 0 5 7 8 15 8 8 0 15 6 15 13 0 9 2 9 9 -1 4 -8 12 -13 17
-13 5 1 9 -3 9 -8 0 -5 3 -13 8 -17 4 -4 7 0 7 9 0 9 7 17 15 17 10 0 15 -9
14 -27 0 -25 -1 -26 -9 -8 -7 18 -8 17 -15 -10 -7 -26 -9 -27 -16 -10 -5 11
-6 -6 -3 -40 5 -56 18 -80 36 -69 4 3 8 12 8 20 0 8 5 12 10 9 6 -3 13 2 17
12 3 10 14 37 24 60 22 49 23 60 7 66 -7 3 -2 6 11 6 18 1 22 5 16 19 -4 9 -7
25 -7 35 1 10 -17 35 -38 56 -43 42 -109 63 -152 49z m-8 -119 c0 -5 -4 -9
-10 -9 -5 0 -10 7 -10 16 0 8 5 12 10 9 6 -3 10 -10 10 -16z m40 -9 c0 -5 -7
-10 -15 -10 -8 0 -15 5 -15 10 0 6 7 10 15 10 8 0 15 -4 15 -10z m-73 -25 c3
-9 3 -19 -1 -22 -8 -9 -37 18 -30 28 8 14 24 11 31 -6z m179 -62 c-11 -11 -19
6 -11 24 8 17 8 17 12 0 3 -10 2 -21 -1 -24z m-346 -35 c0 -5 -7 -8 -15 -8
-17 0 -18 2 -9 25 5 13 8 14 15 3 5 -7 9 -16 9 -20z m30 8 c0 -3 -4 -8 -10
-11 -5 -3 -10 -1 -10 4 0 6 5 11 10 11 6 0 10 -2 10 -4z"/>
<path d="M0 689 l0 -110 48 4 c40 3 48 7 50 26 3 20 8 22 32 18 21 -5 35 0 56
18 l27 23 -29 36 c-28 34 -57 47 -52 25 2 -7 -9 -15 -24 -20 -21 -5 -28 -4
-28 6 0 8 -12 15 -27 17 -22 2 -28 8 -26 26 2 12 -2 22 -8 22 -5 0 -7 5 -4 10
3 6 1 10 -4 10 -7 0 -11 -39 -11 -111z"/>
<path d="M1261 784 c0 -11 3 -14 6 -6 3 7 2 16 -1 19 -3 4 -6 -2 -5 -13z"/>
<path d="M221 771 c-6 -4 2 -12 19 -18 24 -9 30 -9 30 2 0 15 -33 26 -49 16z"/>
<path d="M843 760 c-13 -14 -20 -17 -30 -8 -7 6 -16 8 -20 4 -3 -3 -1 -6 5 -6
7 0 12 -4 12 -10 0 -5 -11 -10 -25 -10 -14 0 -25 -4 -25 -10 0 -5 -7 -10 -16
-10 -10 0 -14 6 -10 15 4 11 -2 15 -20 15 -14 0 -22 4 -19 10 4 6 -12 10 -42
9 -34 0 -42 -3 -28 -8 11 -5 26 -6 34 -3 9 4 12 1 7 -7 -4 -6 -16 -9 -27 -6
-13 4 -21 1 -25 -10 -4 -9 -27 -26 -51 -36 -50 -21 -56 -23 -49 -10 3 5 -23
-6 -58 -24 -36 -18 -68 -30 -71 -27 -4 4 -13 -1 -20 -11 -13 -18 -14 -17 -20
3 -4 14 -12 19 -22 16 -8 -3 -29 -6 -46 -6 -18 0 -39 -5 -47 -10 -23 -15 6
-30 55 -28 27 0 32 2 15 5 -40 7 -48 23 -12 23 44 0 47 -2 44 -25 -2 -16 0
-17 8 -5 5 8 10 11 10 5 0 -5 8 -1 17 10 l16 20 -8 -20 c-4 -11 -8 -27 -10
-35 -1 -8 0 -9 2 -2 4 11 33 18 33 7 0 -2 -6 -22 -14 -42 -8 -21 -17 -57 -19
-81 -3 -24 -10 -49 -17 -55 -10 -10 -11 -7 -6 13 3 14 9 36 12 50 l7 25 -23
-28 c-15 -19 -28 -26 -41 -22 -11 4 -19 2 -19 -4 0 -6 7 -11 15 -11 11 0 35
-28 35 -42 0 -7 -115 -6 -120 2 -3 4 -23 2 -44 -5 -22 -8 -43 -12 -48 -9 -4 3
-8 -2 -8 -10 0 -10 9 -16 21 -16 17 0 20 -5 16 -21 -4 -16 -2 -19 11 -14 14 5
15 4 4 -7 -11 -11 -16 -10 -26 5 -7 9 -18 17 -25 17 -6 0 -11 9 -11 19 0 20
-25 35 -41 25 -5 -3 -9 -1 -9 4 0 5 9 12 21 15 20 5 18 27 -2 27 -6 0 -8 -3
-6 -7 3 -5 -6 -9 -20 -10 -19 -1 -22 1 -12 8 12 8 12 10 -1 19 -25 16 -27 12
-26 -47 1 -37 5 -57 14 -59 7 -1 8 0 2 3 -20 10 -9 23 20 23 17 0 30 -4 30 -9
0 -5 11 -12 25 -15 14 -4 25 -11 25 -16 0 -10 -27 -3 -48 13 -9 7 -17 6 -25
-3 -10 -10 -9 -12 6 -7 16 6 21 -6 20 -50 -1 -11 35 -10 77 3 13 5 13 6 0 15
-11 8 -9 9 9 4 14 -4 21 -3 18 2 -4 6 5 8 21 5 24 -5 26 -4 13 11 -17 21 -4
21 29 1 14 -8 18 -14 10 -13 -8 1 -26 -3 -40 -10 -24 -11 -24 -11 7 -8 18 2
33 0 33 -5 0 -4 -5 -8 -11 -8 -5 0 -7 -5 -4 -10 4 -7 12 -7 18 -2 16 11 56 7
70 -7 9 -10 6 -11 -16 -6 -15 4 -27 3 -26 -1 1 -5 1 -16 0 -24 -1 -13 -3 -13
-10 0 -6 8 -8 17 -6 20 2 4 -11 7 -30 8 -19 1 -35 -2 -35 -6 0 -4 -5 -14 -10
-22 -8 -13 -11 -12 -25 5 -9 11 -14 15 -11 8 4 -7 -1 -11 -13 -10 -32 2 -12
27 23 27 17 0 38 5 46 11 12 9 11 10 -7 6 -12 -3 -24 0 -27 7 -3 7 -7 8 -13 1
-13 -16 -77 -49 -68 -35 6 9 -1 11 -26 6 -22 -4 -27 -3 -15 2 14 6 16 11 8 16
-7 4 -10 12 -7 17 4 5 2 9 -3 9 -8 0 -20 -27 -20 -47 0 -4 -9 -11 -19 -15 -15
-7 -14 -8 5 -4 25 5 30 -9 7 -21 -8 -5 -17 -26 -19 -48 -4 -30 -3 -36 5 -23 5
10 15 18 20 18 6 0 7 -5 3 -11 -4 -8 -1 -8 12 -2 14 7 23 5 36 -8 16 -17 15
-18 -19 -14 -20 2 -42 1 -48 -1 -16 -6 -13 -50 3 -47 7 2 12 -6 12 -17 0 -13
-5 -18 -15 -14 -8 4 -15 1 -15 -5 0 -15 379 -12 399 3 11 8 13 8 8 -1 -6 -9 2
-12 28 -11 19 1 35 5 35 10 0 4 5 8 11 8 5 0 8 -4 5 -8 -2 -4 4 -9 15 -9 10
-1 19 2 19 8 0 5 -4 9 -10 9 -5 0 -10 5 -10 11 0 8 4 8 13 1 7 -6 24 -9 38 -6
l24 5 -24 -14 c-23 -13 -19 -14 47 -14 39 1 69 3 67 5 -7 7 19 28 43 34 15 4
22 2 22 -9 0 -8 -5 -11 -12 -7 -6 4 -8 3 -4 -4 3 -6 -2 -12 -11 -15 -10 -2 94
-4 230 -3 216 1 247 3 245 16 -2 8 -13 16 -26 18 -22 3 -32 22 -10 22 6 0 8 3
5 6 -4 4 -14 1 -23 -7 -16 -13 -64 -25 -51 -13 8 8 -42 36 -53 29 -4 -2 -16 6
-25 19 -13 18 -25 23 -44 20 -36 -6 -55 -14 -49 -20 3 -2 17 0 32 5 17 7 26 7
26 1 0 -11 -26 -14 -79 -11 -20 2 -31 -1 -27 -7 9 -15 -21 -23 -48 -12 -17 6
-30 4 -45 -6 -11 -8 -21 -11 -21 -5 0 19 43 41 56 30 7 -6 18 -8 24 -4 5 3 10
0 10 -7 0 -8 5 -6 11 5 5 9 20 17 32 17 19 0 16 4 -14 23 -20 12 -34 28 -32
35 4 9 -1 10 -21 2 -19 -7 -26 -6 -26 3 0 7 -10 17 -22 22 -13 6 -29 25 -37
43 -9 20 -20 31 -28 27 -8 -2 -11 0 -8 5 3 6 -1 10 -9 10 -9 0 -16 5 -16 10 0
6 -3 10 -7 9 -5 -1 -19 2 -31 6 -18 6 -20 10 -10 16 10 7 9 9 -4 9 -10 0 -18
4 -18 10 0 5 7 7 15 4 8 -4 15 -2 15 4 0 5 -10 12 -21 15 -15 4 -20 11 -15 22
3 9 2 13 -4 10 -6 -3 -10 -1 -10 5 0 7 -18 10 -50 8 -32 -2 -50 -8 -50 -15 0
-15 -56 -18 -64 -4 -3 5 -2 37 2 70 5 34 5 61 0 61 -4 0 -8 5 -8 11 0 5 4 7
10 4 6 -3 10 0 10 8 0 13 40 57 52 57 3 0 47 25 97 55 83 50 97 55 151 55 37
0 60 4 63 13 4 9 8 9 15 -2 7 -10 21 -12 53 -7 24 4 59 10 76 13 40 6 34 23
-8 23 -17 0 -28 4 -25 8 2 4 -4 13 -15 20 -16 10 -22 9 -36 -8z m-260 -87 c-7
-2 -16 -5 -20 -6 -5 -1 -15 -7 -24 -15 -25 -21 -103 -66 -96 -55 4 6 -4 8 -21
5 -24 -5 -26 -4 -13 11 7 10 20 17 28 17 8 0 27 9 43 20 15 11 30 17 33 14 3
-3 14 -1 24 5 10 6 27 10 38 10 11 0 14 -3 8 -6z m-46 -289 c-3 -3 -12 -4 -19
-1 -8 3 -5 6 6 6 11 1 17 -2 13 -5z m-257 -49 c0 -9 -9 -15 -24 -15 -13 0 -26
7 -30 15 -4 11 2 15 24 15 20 0 30 -5 30 -15z m110 5 c0 -5 9 -10 20 -10 11 0
20 5 20 10 0 13 67 13 75 1 3 -6 -13 -13 -35 -18 -48 -9 -180 -5 -180 6 0 5
11 6 24 4 13 -3 32 0 43 6 23 13 33 14 33 1z m180 -10 c0 -5 -5 -10 -11 -10
-5 0 -7 5 -4 10 3 6 8 10 11 10 2 0 4 -4 4 -10z m-50 -21 c0 -10 -50 -18 -55
-9 -3 5 0 10 6 12 18 6 49 4 49 -3z m-70 -25 c0 -8 -32 -33 -42 -34 -5 0 -8 5
-8 10 0 6 7 10 15 10 8 0 15 5 15 10 0 6 5 10 10 10 6 0 10 -3 10 -6z m180
-10 c0 -8 -4 -12 -10 -9 -5 3 -10 10 -10 16 0 5 5 9 10 9 6 0 10 -7 10 -16z
m-306 0 c9 -3 13 -10 10 -15 -8 -13 30 -11 43 2 9 9 12 7 10 -10 -1 -14 -7
-20 -17 -17 -8 2 -28 7 -43 10 -16 4 -25 11 -21 17 4 8 -1 9 -16 4 -15 -5 -20
-4 -16 4 8 12 26 14 50 5z m41 -4 c3 -5 1 -10 -4 -10 -6 0 -11 5 -11 10 0 6 2
10 4 10 3 0 8 -4 11 -10z m-248 -6 c-3 -3 -12 -4 -19 -1 -8 3 -5 6 6 6 11 1
17 -2 13 -5z m514 -30 c12 -6 14 -15 8 -29 -7 -19 -8 -19 -8 1 -1 24 -26 39
-37 23 -3 -6 -1 -16 5 -22 16 -16 14 -24 -9 -30 -11 -3 -18 -1 -14 4 3 5 0 9
-5 9 -6 0 -11 -9 -11 -21 0 -15 4 -19 16 -15 14 5 15 4 4 -9 -7 -8 -20 -15
-29 -15 -14 0 -14 2 -1 10 13 9 7 14 -12 11 -4 0 -5 6 -2 14 4 10 0 15 -15 15
-16 0 -21 6 -21 28 0 26 2 27 41 25 39 -2 40 -1 23 13 -16 13 -17 15 -2 10 10
-3 20 -1 24 5 4 6 10 5 17 -4 7 -8 19 -18 28 -23z m-101 16 c8 -5 11 -10 5
-10 -5 0 -17 5 -25 10 -8 5 -10 10 -5 10 6 0 17 -5 25 -10z m-56 -23 c3 3 6 2
6 -4 0 -6 -8 -14 -17 -17 -10 -4 -14 -4 -10 0 4 4 -1 13 -11 21 -15 13 -15 13
4 4 12 -6 24 -7 28 -4z m-109 -7 c3 -5 1 -10 -4 -10 -6 0 -11 5 -11 10 0 6 2
10 4 10 3 0 8 -4 11 -10z m60 -40 c-18 -17 -23 -17 -45 -5 -24 13 -24 14 -4
15 12 0 27 7 34 15 9 11 16 13 24 5 7 -7 4 -16 -9 -30z m278 3 c-5 -12 -3 -14
7 -8 9 6 11 4 5 -4 -5 -9 -11 -9 -17 -3 -6 6 -7 15 -4 21 11 17 16 13 9 -6z
m-506 -13 c13 0 23 -4 23 -10 0 -5 5 -10 11 -10 5 0 8 4 5 9 -4 5 2 8 11 6 10
-2 29 -4 42 -4 49 -2 12 -11 -60 -15 -41 -3 -65 -1 -55 3 19 7 19 8 -2 13 -12
4 -22 12 -22 19 0 10 3 10 12 1 7 -7 22 -12 35 -12z m-61 -5 c-14 -38 17 -47
114 -32 19 3 26 -1 26 -13 0 -15 -4 -16 -25 -6 -19 8 -25 8 -29 -2 -2 -6 -8
-12 -14 -12 -5 0 -16 -7 -25 -15 -17 -18 -39 -10 -24 9 11 13 9 14 -39 18 -11
1 -20 8 -20 15 0 7 -7 13 -15 13 -8 0 -15 7 -15 16 0 14 2 15 17 3 9 -8 14 -9
10 -2 -7 11 6 21 32 22 8 1 11 -5 7 -14z m321 1 c0 -12 -12 -13 -37 -6 -3 1 4
5 15 10 11 5 20 9 21 9 0 1 1 -5 1 -13z m38 4 c-3 -5 -11 -10 -16 -10 -6 0 -7
5 -4 10 3 6 11 10 16 10 6 0 7 -4 4 -10z m182 4 c-3 -3 -12 -4 -19 -1 -8 3 -5
6 6 6 11 1 17 -2 13 -5z m-292 -24 c-3 -5 -12 -10 -18 -10 -7 0 -6 4 3 10 19
12 23 12 15 0z m299 -3 c3 3 6 1 6 -6 0 -7 5 -9 10 -6 20 12 9 -2 -27 -36 -21
-18 -28 -22 -15 -8 21 24 21 27 6 39 -14 12 -15 11 -12 -6 2 -14 -3 -19 -20
-19 -13 0 -27 -7 -32 -15 -6 -9 -10 -10 -10 -3 0 6 5 15 10 18 6 4 8 10 5 15
-3 5 4 7 15 5 15 -3 20 1 20 16 0 16 3 18 19 10 10 -6 21 -7 25 -4z m66 -7 c0
-5 -8 -10 -17 -10 -15 0 -16 2 -3 10 19 12 20 12 20 0z m-400 -15 c11 -13 8
-15 -14 -13 -28 2 -34 13 -13 21 6 3 13 6 13 6 1 1 7 -6 14 -14z m175 5 c-3
-5 -14 -10 -23 -9 -14 0 -13 2 3 9 27 11 27 11 20 0z m265 -7 c-8 -3 -25 -15
-37 -26 -27 -24 -30 -16 -6 13 10 11 27 20 38 19 14 0 16 -2 5 -6z m-393 -57
c23 -25 23 -26 4 -26 -15 0 -19 5 -14 17 4 10 2 14 -5 9 -6 -3 -15 2 -21 11
-6 10 -11 13 -11 7 0 -5 5 -15 12 -22 6 -6 9 -15 5 -18 -3 -4 -11 5 -18 19 -8
17 -18 24 -33 23 -13 -2 -23 2 -23 9 0 21 77 0 104 -29z m167 32 c-3 -4 -14
-8 -24 -8 -10 0 -22 -4 -25 -10 -3 -5 -11 -10 -16 -10 -6 0 -7 5 -4 10 3 6 0
10 -7 10 -9 0 -10 2 -1 8 16 10 83 11 77 0z m-300 -13 c11 -8 16 -15 10 -15
-5 0 -18 7 -28 15 -11 8 -16 15 -10 15 5 0 18 -7 28 -15z m146 5 c0 -5 -2 -10
-4 -10 -3 0 -8 5 -11 10 -3 6 -1 10 4 10 6 0 11 -4 11 -10z m45 -14 c8 4 15 1
15 -5 0 -5 -13 -9 -28 -8 -23 2 -28 6 -24 21 4 16 6 16 14 3 5 -9 15 -14 23
-11z m171 -2 c-4 -9 2 -14 17 -15 15 0 9 -4 -16 -12 -22 -7 -35 -15 -31 -19 4
-5 5 -8 1 -8 -18 0 -15 22 5 30 20 8 18 9 -12 7 -20 -2 -42 -7 -50 -12 -8 -4
-4 4 9 18 19 20 27 24 38 16 9 -9 14 -7 19 5 3 9 10 13 16 10 5 -3 7 -12 4
-20z m-572 -9 c3 -8 10 -15 16 -15 6 0 8 5 5 10 -3 6 1 10 9 10 14 0 14 -3 4
-20 -7 -11 -19 -20 -27 -20 -13 0 -40 28 -41 43 0 13 28 7 34 -8z m946 5 c0
-5 11 -10 25 -10 14 0 25 -5 25 -11 0 -5 -5 -7 -10 -4 -6 4 -9 1 -8 -7 2 -9
-9 -13 -32 -14 -29 -2 -30 -1 -6 3 l29 5 -28 24 c-21 18 -24 24 -12 24 10 0
17 -4 17 -10z m-667 -29 c3 -13 1 -18 -9 -14 -7 2 -10 11 -7 19 7 19 10 18 16
-5z m461 8 c-4 -8 1 -9 17 -5 21 6 21 5 6 -4 -9 -6 -15 -16 -11 -22 4 -6 -2
-6 -15 1 -22 12 -26 23 -14 34 11 11 25 8 17 -4z"/>
<path d="M530 208 c0 -4 7 -8 15 -8 8 0 15 4 15 8 0 5 -7 9 -15 9 -8 0 -15 -4
-15 -9z"/>
<path d="M728 753 c12 -2 30 -2 40 0 9 3 -1 5 -23 4 -22 0 -30 -2 -17 -4z"/>
<path d="M2392 748 c7 -19 35 -21 41 -3 5 11 0 15 -19 15 -16 0 -24 -5 -22
-12z"/>
<path d="M288 724 c-6 -23 7 -54 22 -54 6 0 10 9 10 20 0 11 -4 20 -9 20 -5 0
-11 8 -13 18 -3 14 -5 14 -10 -4z"/>
<path d="M1246 725 c-9 -26 -7 -32 5 -12 6 10 9 21 6 23 -2 3 -7 -2 -11 -11z"/>
<path d="M2320 725 c0 -13 4 -14 20 -5 11 6 20 13 20 15 0 3 -9 5 -20 5 -11 0
-20 -7 -20 -15z"/>
<path d="M2692 733 c-6 -2 -10 -9 -6 -14 3 -5 -6 -9 -20 -9 -59 0 -10 -31 57
-36 24 -2 27 1 27 27 0 16 -4 29 -9 29 -5 0 -15 2 -23 4 -7 3 -19 2 -26 -1z"/>
<path d="M544 704 c-18 -14 -18 -14 6 -3 31 14 36 19 24 19 -6 0 -19 -7 -30
-16z"/>
<path d="M1190 685 c-10 -12 -10 -15 4 -15 9 0 16 7 16 15 0 8 -2 15 -4 15 -2
0 -9 -7 -16 -15z"/>
<path d="M1676 687 c3 -10 9 -15 12 -12 3 3 0 11 -7 18 -10 9 -11 8 -5 -6z"/>
<path d="M2300 680 c-13 -8 -12 -10 3 -10 9 0 17 5 17 10 0 12 -1 12 -20 0z"/>
<path d="M2133 645 c0 -22 2 -30 4 -17 2 12 2 30 0 40 -3 9 -5 -1 -4 -23z"/>
<path d="M1693 585 c0 -22 2 -30 4 -17 2 12 2 30 0 40 -3 9 -5 -1 -4 -23z"/>
<path d="M1358 572 c-10 -2 -18 -10 -18 -18 0 -18 24 -44 40 -44 6 0 8 -5 5
-10 -4 -6 -10 -8 -15 -5 -4 3 -10 -1 -13 -8 -7 -19 40 -20 51 -1 8 15 10 15
15 -1 4 -9 0 -23 -8 -31 -29 -30 -18 -44 33 -43 26 0 40 3 32 6 -24 8 -40 35
-40 65 0 39 -30 97 -49 95 -9 -1 -24 -3 -33 -5z m42 -27 c0 -8 -4 -15 -8 -15
-5 0 -9 7 -9 15 0 8 4 15 9 15 4 0 8 -7 8 -15z"/>
<path d="M1258 482 c-16 -2 -28 -8 -28 -13 0 -5 2 -9 4 -9 2 0 12 -3 22 -7 10
-4 15 -2 11 3 -3 5 12 8 36 6 34 -3 40 -2 30 9 -13 14 -31 16 -75 11z"/>
<path d="M2151 454 c0 -11 3 -14 6 -6 3 7 2 16 -1 19 -3 4 -6 -2 -5 -13z"/>
<path d="M1631 434 c0 -11 3 -14 6 -6 3 7 2 16 -1 19 -3 4 -6 -2 -5 -13z"/>
<path d="M455 430 c-3 -5 -1 -10 4 -10 6 0 11 5 11 10 0 6 -2 10 -4 10 -3 0
-8 -4 -11 -10z"/>
<path d="M0 270 c0 -5 5 -10 10 -10 6 0 10 5 10 10 0 6 -4 10 -10 10 -5 0 -10
-4 -10 -10z"/>
<path d="M851 235 c1 -19 18 -51 18 -35 0 8 -4 22 -9 30 -5 8 -9 11 -9 5z"/>
<path d="M2050 230 c0 -5 5 -10 11 -10 5 0 7 5 4 10 -3 6 -8 10 -11 10 -2 0
-4 -4 -4 -10z"/>
<path d="M780 220 c0 -5 7 -10 15 -10 8 0 15 5 15 10 0 6 -7 10 -15 10 -8 0
-15 -4 -15 -10z"/>
<path d="M820 220 c0 -5 5 -10 10 -10 6 0 10 5 10 10 0 6 -4 10 -10 10 -5 0
-10 -4 -10 -10z"/>
<path d="M2315 211 c-3 -6 -5 -11 -3 -12 27 -6 38 -5 35 4 -5 15 -24 20 -32 8z"/>
<path d="M2163 199 c-6 -6 -22 -17 -35 -23 -12 -7 -22 -20 -22 -28 1 -9 -5
-19 -13 -22 -9 -4 -12 -1 -8 7 4 6 0 4 -8 -5 -17 -21 -33 -23 -40 -5 -3 6 -6
2 -6 -10 -1 -13 4 -23 9 -23 36 0 -19 -37 -66 -44 -10 -2 -20 -8 -22 -14 -5
-16 -3 -15 46 8 48 23 56 25 45 8 -12 -20 -12 -38 -1 -38 6 0 8 6 5 14 -3 8 1
20 8 26 10 9 12 17 5 30 -7 13 -6 19 4 23 20 8 28 -4 15 -20 -9 -10 -6 -13 15
-13 15 0 25 -4 21 -10 -3 -5 -12 -7 -19 -4 -8 3 -17 0 -22 -7 -5 -8 -3 -10 7
-4 12 8 12 6 0 -8 -7 -9 -12 -17 -10 -18 2 0 13 -3 24 -6 11 -3 54 -6 95 -8
41 -1 66 -1 55 2 -11 3 -26 10 -32 15 -8 7 -22 7 -41 0 -17 -6 -35 -6 -43 -1
-15 9 -6 13 24 10 9 -1 17 2 17 7 0 6 10 8 23 5 18 -4 19 -3 7 6 -10 7 -11 11
-2 11 6 0 12 9 12 21 0 13 -5 19 -13 16 -7 -3 -18 3 -24 12 -9 14 -7 20 8 30
11 6 17 16 14 21 -4 6 1 7 12 3 16 -6 16 -5 4 10 -7 9 -10 17 -5 17 9 0 -17
20 -26 20 -4 0 -11 -5 -17 -11z m-5 -126 c-15 -18 -21 -9 -13 18 6 16 9 18 16
8 4 -8 3 -19 -3 -26z"/>
<path d="M2720 190 c0 -5 7 -10 15 -10 8 0 15 5 15 10 0 6 -7 10 -15 10 -8 0
-15 -4 -15 -10z"/>
<path d="M2668 161 c-16 -15 -28 -31 -28 -36 0 -5 7 0 16 11 13 15 15 16 10 2
-4 -13 -1 -15 11 -11 12 5 15 2 11 -9 -4 -10 1 -19 15 -25 29 -13 47 -6 47 17
0 23 -26 39 -54 33 -17 -4 -18 -3 -6 6 8 6 26 11 40 12 24 2 24 2 3 6 -13 2
-23 9 -23 14 0 15 -13 9 -42 -20z"/>
<path d="M1015 170 c-3 -5 -1 -10 4 -10 6 0 11 5 11 10 0 6 -2 10 -4 10 -3 0
-8 -4 -11 -10z"/>
<path d="M2335 159 c6 -19 4 -21 -20 -17 -14 3 -23 2 -18 -3 12 -12 48 -16 48
-6 0 5 8 13 18 18 25 14 21 29 -9 29 -21 0 -24 -3 -19 -21z"/>
<path d="M2223 153 c-19 -7 -16 -20 5 -25 10 -3 23 1 29 7 9 10 8 14 -5 17 -9
3 -23 3 -29 1z"/>
<path d="M877 133 c3 -7 6 -13 8 -13 2 0 5 6 8 13 3 8 -1 14 -8 14 -7 0 -11
-6 -8 -14z"/>
<path d="M905 129 c-11 -17 -2 -18 25 -4 24 14 24 14 3 15 -12 0 -25 -5 -28
-11z"/>
<path d="M1010 116 c0 -2 7 -7 16 -10 8 -3 12 -2 9 4 -6 10 -25 14 -25 6z"/>
<path d="M1238 94 c-16 -8 -28 -19 -28 -24 0 -6 -3 -9 -7 -9 -5 1 -16 1 -26 0
-17 -1 -17 -2 -2 -18 16 -15 19 -13 57 25 22 23 39 42 37 42 -2 -1 -16 -8 -31
-16z"/>
<path d="M1370 101 c0 -5 -7 -16 -15 -24 -12 -13 -12 -15 8 -13 16 1 22 7 22
23 0 13 -3 23 -7 23 -5 0 -8 -4 -8 -9z"/>
<path d="M1512 94 c-7 -8 -8 -14 -3 -14 10 0 25 19 20 25 -2 1 -10 -3 -17 -11z"/>
<path d="M1605 100 c-19 -8 -19 -9 1 -9 28 -1 39 -26 12 -28 -27 -2 -32 -9
-23 -30 5 -10 7 -22 6 -26 -1 -6 34 -5 69 2 14 3 -28 21 -50 21 -18 0 -21 3
-11 9 8 5 26 5 44 -2 22 -7 32 -7 35 1 2 6 11 9 20 6 15 -5 15 -4 -1 6 -9 6
-14 17 -11 23 5 8 3 8 -7 0 -7 -7 -20 -13 -28 -13 -13 0 -14 2 -2 9 11 7 9 10
-8 16 -12 3 -19 11 -16 16 7 11 -3 11 -30 -1z"/>
<path d="M1075 80 c-3 -5 -1 -10 4 -10 6 0 11 5 11 10 0 6 -2 10 -4 10 -3 0
-8 -4 -11 -10z"/>
<path d="M1168 83 c6 -2 18 -2 25 0 6 3 1 5 -13 5 -14 0 -19 -2 -12 -5z"/>
<path d="M1231 51 c-23 -22 -37 -42 -33 -45 10 -6 33 13 60 52 30 43 21 40
-27 -7z"/>
<path d="M1862 79 c-33 -13 -26 -22 11 -15 17 3 28 3 22 -2 -21 -15 -14 -42
11 -42 13 0 24 -4 24 -8 0 -4 11 -9 25 -10 14 -1 25 3 25 8 0 5 -7 7 -15 4
-10 -4 -18 3 -25 22 -12 34 -48 54 -78 43z"/>
<path d="M2670 80 c-9 -6 -10 -10 -3 -10 6 0 15 5 18 10 8 12 4 12 -15 0z"/>
<path d="M1279 53 c-13 -15 -12 -15 11 -3 34 17 36 20 18 20 -9 0 -22 -7 -29
-17z"/>
<path d="M2710 55 c0 -9 5 -15 11 -13 6 2 11 8 11 13 0 5 -5 11 -11 13 -6 2
-11 -4 -11 -13z"/>
<path d="M2564 40 c0 -10 6 -16 13 -13 7 3 13 9 13 13 0 4 -6 10 -13 13 -7 3
-13 -3 -13 -13z"/>
<path d="M1550 29 c0 -5 5 -7 10 -4 6 3 10 8 10 11 0 2 -4 4 -10 4 -5 0 -10
-5 -10 -11z"/>
<path d="M1740 28 c0 -9 -6 -19 -12 -22 -7 -3 1 -4 17 0 17 3 35 10 40 16 7 8
4 9 -9 4 -12 -4 -23 -1 -28 6 -6 10 -8 9 -8 -4z"/>
<path d="M1251 18 c-1 -14 7 -18 30 -18 19 0 28 4 23 11 -3 6 -15 9 -25 6 -10
-3 -20 0 -23 7 -2 6 -5 3 -5 -6z"/>
<path d="M1486 22 c-3 -6 -1 -14 5 -17 14 -9 20 -2 10 14 -6 8 -11 9 -15 3z"/>
<path d="M1833 15 c0 -8 4 -12 9 -9 5 3 6 10 3 15 -9 13 -12 11 -12 -6z"/>
<path d="M2001 21 c-8 -5 -9 -11 -3 -15 5 -3 12 1 16 9 6 17 6 18 -13 6z"/>
<path d="M2690 26 c0 -9 40 -13 46 -5 3 5 -6 9 -20 9 -14 0 -26 -2 -26 -4z"/>
<path d="M1320 10 c0 -5 5 -10 10 -10 6 0 10 5 10 10 0 6 -4 10 -10 10 -5 0
-10 -4 -10 -10z"/>
</g>
</svg>
